<svg width="370" height="98" viewBox="0 0 370 98" xmlns="http://www.w3.org/2000/svg"><title>BFA105CF-2FB1-4B60-9903-0CB4253C7B19</title><g fill="none" fill-rule="evenodd"><path d="M65.047.757c-.182 1.286.637 1.654 1.548 1.838 5.737 1.102 10.745 4.043 16.027 6.432 5.737 2.573 11.838 4.503 17.757 6.616 1.093.368 1.64.92 1.275 2.114-.182.092-.273.275-.273.275-8.651-2.756-15.208 3.768-22.948 5.422C63.59 26.578 48.93 30.53 34.45 35.032c-4.736 1.47-7.467-.643-11.019-2.021-2.276-.92-4.917-.827-6.83-2.757-.637-.735-2.185-.368-2.185 1.378-1.184.368-1.821-.183-2.004-1.286.092-.46.638-.643.729-1.103-.182-.551-.546-.735-1.002-.551-.546.276-.273 1.103-.91 1.286-.638.184-1.184-.092-1.822-.183-3.187-.736-5.463.919-5.919 4.135-.91 6.065.82 11.302 5.009 15.621.455.46 1.093.92 1.001 1.654-.546 1.103-1.274.552-1.82.092C4.762 49 2.395 46.243 1.575 42.384c-.273-1.287 0-2.757-1.184-3.768v-4.502c.638-.552.82-1.379.91-2.206.274-2.297 1.64-3.676 3.734-4.319a18.305 18.305 0 0 1 3.005-.827c.456-.092 1.002-.092 1.366-.46 3.097-3.032 7.285-4.226 10.928-6.34 2.003-1.194 4.28-1.746 6.283-2.94a71.928 71.928 0 0 1 5.92-3.033c2.731-1.286 5.554-2.389 8.286-3.86 1.275-.643 2.459-1.378 3.734-2.02 3.278-1.471 6.738-2.758 9.926-4.504 1.73-.919 3.369-1.93 5.372-2.113.638-.092 1.275-.46 1.73-1.01 1.275.275 2.368.275 3.46.275z" fill="#FFF"/><path d="M369.743 35.032v-7.075 7.075z" fill="#FDFDFD"/><path d="M52.025 76.2l-.547-.276c-.273-.183-.546-.367-.91-.46-12.02-6.983-24.04-13.875-36.061-20.859-1.73-1.01-3.46-2.205-5.1-3.308-4.37-4.043-6.83-9.005-6.738-14.978.09-6.34 2.823-8.362 8.924-6.433.455 0 .91-.183 1.002.552.637.46 1.274.919 2.003 1.286l3.551 1.654c.638-.092.911.552 1.275.827l.182.184c2.55 1.011 4.918 2.39 7.194 3.952 1.002.735 2.55.55 3.279 1.837l.182.184c2.64 1.195 5.1 2.665 7.558 4.32.273.183.637.367.91.55.638.092 1.093.644 1.73.827l1.64 1.103c1.184.276 2.277.735 3.187 1.562l.182.184c.638.184 1.093.643 1.64.827 1.912 1.103 3.824 2.114 5.736 3.216.365.092.547.46.911.552 1.912 1.01 3.825 1.93 5.646 2.94 2.823.92 3.825 2.39 3.46 5.422-.182 1.194.182 2.297.182 3.492 0 2.113-1.183 2.757-3.005 1.746-.82-.46-1.366-1.47-2.367-1.654a5.114 5.114 0 0 1-1.64-.276c-1.274-1.01-2.55-1.838-4.188-2.114-.182-.091-.365-.183-.456-.275-1.639-1.562-3.642-2.665-5.828-3.4-.273 0-.455-.092-.728-.276-1.093-.643-1.64-1.93-3.005-2.022-.273-.091-.456-.091-.729-.275-1.001-.735-1.639-1.93-3.005-1.93-.273-.092-.455-.092-.728-.276-1.184-.643-2.186-1.746-3.643-1.93-.273 0-.455-.091-.728-.275-1.002-.735-1.64-1.93-3.005-2.022-.274 0-.456-.092-.729-.275-.728-.552-1.275-1.287-2.276-1.287-.274-.092-.456-.092-.729-.275-1.093-.736-2.185-1.47-3.46-2.022-.182-.092-.274-.184-.456-.276-2.55-1.838-5.372-3.4-8.286-4.686-.638-.276-1.275-.735-1.822-1.287-.455-.46-.91-.919-1.548-.643-.182 0-.455.092-.637.092a.714.714 0 0 0-.364.367c0 .184-.091.46-.091.644-.092 1.562 1.183 2.389 2.185 2.94 2.64 1.562 5.19 3.125 7.831 4.595.274.184.547.092.911.184.455 0 .91.092 1.275.275 1.366 2.022 4.007 2.39 5.646 4.044.364.367 1.002.367 1.548.275.364 0 .728 0 1.002.184 1.457 2.114 4.006 2.665 5.919 4.135 2.094 1.562 4.553 2.481 6.647 4.135.547.46 1.275.46 1.913.46.273 0 .546.092.82.275 1.456 1.746 3.46 2.573 5.372 3.4 2.003.92 3.551 2.482 5.555 3.309 1.092.459 2.003 1.286 3.187 1.745 2.64 1.011 3.551 2.482 3.278 5.422-.09 1.01.273 1.93.456 2.94.182 1.011.364 2.022-.911 2.482-1.912-.92-3.825-1.93-5.646-2.849-.455-.367-1.002-.735-1.64-.919-.546-.276-1.183-.643-1.73-.919-.273-.092-.637-.551-1.183-.643zM58.764 95.681C55.212 93.2 51.843 90.627 48.2 88.33c-10.017-6.34-20.216-12.406-30.324-18.654C13.05 66.643 7.86 64.07 3.67 60.303c-2.367-2.114-2.458-6.065.183-9.006.546.46 1.092.827 1.73 1.287.546.275 1.093.643 1.639.919.546.275 1.093.643 1.73.919.729.367 1.275.919 2.003 1.286.274.092.547.276.82.368.546-.184.729.183.82.551 5.19 3.308 10.38 6.616 15.571 9.832 9.926 6.065 19.761 12.13 29.687 18.195 1.275.827 2.64 1.47 3.916 2.297.364.368 1.001.644 1.092 1.195.365 2.573.456 5.146 0 7.719-.182 1.01-1.092 1.47-2.094 1.01-.546-.275-1.093-.459-1.64-.826-.09-.092-.272-.184-.363-.368zM259.466 65.265c-5.008 1.746-9.926 2.205-13.841-2.206-2.277-2.664-1.548-6.248-1.093-9.373.182-1.47 2.003-1.102 3.187-1.102 1.64 0 2.459.919 2.459 2.573 0 1.746-.182 3.584 2.094 4.227 1.548.46 2.914 0 3.825-1.195 1.366-1.562 1.002-3.492.273-5.238-1.73-4.135-5.737-6.248-8.56-9.373-4.37-4.87-5.19-14.243-1.366-18.01 3.187-3.125 7.103-3.86 11.2-2.298 4.554 1.654 5.647 5.606 5.92 9.925.091 1.562-1.457 1.654-2.64 1.654-1.367-.092-3.28.827-3.643-1.563-.274-1.745-.911-3.124-2.732-3.583-1.457-.368-2.641.367-3.46 1.562-1.093 1.562-.547 2.94.181 4.503 1.64 3.767 5.1 5.697 7.74 8.546 5.829 6.34 6.375 13.232 1.458 20.4-.273.183-.638.367-1.002.55zM369.38 56.535c-.82 1.562-1.731 3.033-2.55 4.595-2.642 4.87-6.648 5.789-11.657 4.41-6.01-1.654-6.83-6.34-6.283-11.578.182-1.746 1.64-1.47 2.914-1.47 1.548-.092 2.732.46 2.823 2.205.09 2.298.82 4.227 3.187 4.87 1.457.368 2.823-.275 3.37-1.653 1.001-2.298.637-4.503-.911-6.617-3.278-4.319-8.287-6.983-10.381-12.313-1.73-4.503-1.822-9.006 1.092-12.773 2.46-3.216 6.284-4.227 10.29-3.216 4.554 1.194 6.648 4.778 7.194 9.28.183 1.655-1.001 2.206-2.276 2.298-1.821.184-3.734.184-4.28-2.114-.546-2.205-1.548-4.043-3.916-3.216-2.458.827-2.64 3.125-2.094 5.422 1.093 5.054 5.646 7.26 8.56 10.935 1.73 2.114 3.096 4.227 3.551 6.892.091.46 1.002.827 1.548 1.194-.182.92-.182 1.93-.182 2.85z" fill="#FFF"/><path d="M95.826 75.74c-2.185 1.287-4.189 2.941-6.92 3.033-.274-2.114-.274-2.39-1.458-2.849-1.001-.367-1.73-1.102-2.458-1.838-7.559 3.768-14.57 8.363-21.764 13.233-.183 0-.82-.184-1.366-.276 1.275 3.216-1.275 7.168-.091 10.016M117.135 39.535c-.273-1.654 1.366-1.654 2.185-2.297 1.913-1.287 4.098-2.481 3.916-5.146-.182-2.481 1.275-5.422-1.821-7.168-1.548.46-3.005.92-3.643 2.573 1.093.827 1.822-.919 2.823-.551 1.821 3.032.638 7.168-2.55 9.005-.546.368-1.274.552-1.82.92-.82.643-1.731 1.194-1.64 2.48" fill="#FFF"/><path d="M65.957 95.405c11.201-6.891 11.383-6.156 22.038-14.794" fill="#505050"/><path d="M117.772 27.59c1.366.091 3.096-3.125 3.734-.368.91 3.492.91 7.627-3.552 9.464-1.366.552-2.64 1.195-3.278 2.665-.273.827-1.093.735-1.639 1.011-.637 0-1.002.46-1.457.827-.091.092-.273.184-.455.276-.547.092-.911.46-1.366.643-1.913.643-3.552 1.93-5.282 3.033-4.37 2.756-8.833 5.237-13.204 7.994-.546.368-1.093.643-1.73.368-1.548-1.47-1.548-2.206-.091-3.676.455-.551 1.275-.827 1.366-1.746-.82-.643-1.64-.276-2.277.276-1.73 1.286-3.916 1.194-5.646 2.389-.364.276-1.002.184-1.457.092-.637-.092-1.184-.368-1.366-1.011-.182-.735.364-1.103.91-1.47 3.097-1.654 6.193-3.216 9.198-4.87 3.005-1.746 6.101-3.309 9.015-5.146a52.997 52.997 0 0 1 5.92-3.217c.546-.275.82-.735 1.274-1.01 2.277-1.287 4.645-2.573 6.921-3.86.273-.184.547-.551.91-.551.092 0 .183-.092.274-.184.273-.184.455-.551.91-.551.092 0 .183-.092.183-.184.273-.184.455-.643.91-.46.456-.367.911-.551 1.275-.735z" fill="#FFF"/><path d="M106.48 33.93c-4.553 2.756-9.106 5.513-13.75 8.178-4.189 2.39-8.378 4.778-13.295 7.535 5.1 1.654 8.287-3.767 13.113-1.838-1.64 1.563-2.732 2.573-3.825 3.584.456.735.82 1.287 1.093 1.838-1.093 2.114-3.187 3.124-5.19 3.951-4.918 2.114-9.198 5.054-13.387 8.27-.182.184.091.093-.182.093-3.096.643-5.828 2.664-9.015 2.756-2.55.092-4.19-1.286-4.462-3.308.637.46 1.366.827 2.003 1.287a68.1 68.1 0 0 1 3.096 1.654c-1.093-4.411 1.548-8.822-3.37-11.395 1.276.368 2.46.735 3.734 1.103L106.48 33.93z" fill="#FFF"/><path d="M29.988 40.178c-3.46-1.93-7.012-3.86-10.473-5.789 4.007 1.195 7.376 3.308 10.473 5.79zM37.819 44.681c-2.55-1.47-5.008-2.849-7.558-4.319 2.914.735 5.373 2.297 7.558 4.32zM45.195 48.816c-1.093-.551-2.094-1.102-3.187-1.562 1.275 0 2.64 0 3.187 1.562zM47.016 49.827L45.377 49a6.87 6.87 0 0 1 1.64.827zM40.46 46.06a31.19 31.19 0 0 0-1.73-.828c.546.276 1.092.552 1.73.827zM19.333 34.205c-.455-.275-.91-.55-1.275-.827.82-.275 1.184.092 1.275.827zM116.497 28.14a4.238 4.238 0 0 1-.91.46c.364-.092.637-.276.91-.46zM115.405 28.784c-.274.184-.638.367-.911.551.273-.092.546-.367.91-.551zM114.22 29.519c-.272.184-.546.367-.91.551.364-.184.638-.367.91-.551zM53.664 53.503c-.273-.184-.546-.368-.91-.552.364.184.637.368.91.552z" fill="#505050"/><path d="M12.504 30.346c-.365-.184-.638-.368-1.002-.551-.091-.552-.273-1.011-.364-1.654 1.639-.552 2.731-.46 3.005 1.654a5.752 5.752 0 0 1-1.64.55z" fill="#FDFDFD"/><path d="M110.032 45.232c.82-.183 2.003-.091 2.459-.643 2.094-2.113 4.553-3.675 7.194-1.562 3.278 2.665 3.187 6.249 2.367 10.292-2.276 11.395-12.293 14.243-20.216 19.39-4.28 2.848-8.924 5.145-13.75 7.902.09-1.47.182-2.573.273-3.768-1.093-.46-2.003-.827-3.096-1.286-.091-.46-.182-1.011-.182-1.562.364-.184.728-.276 1.184-.46.273 0 .546-.092.637-.367.364-.368.728-.644 1.093-1.011.546-.092.82-.46 1.184-.827.546-.276 1.001-.552 1.548-.827.273.092.546 0 .546-.368l3.825-2.205c1.092-.552 2.094-1.195 2.914-2.206.546-.367 1.092-.827 1.639-1.194.273.092.546 0 .637-.368h.091c.456-.092.82-.276 1.093-.643.729-.643 1.548-1.287 2.277-1.93 1.183-.184 1.912-1.286 3.005-1.746 3.824-1.562 7.922-2.848 8.56-8.638-7.559 4.503-15.026 9.098-22.584 13.6-2.368.46-4.007 2.573-6.283 3.217-.547.183-1.093.643-1.822.367-.728-.919-.273-1.562.547-2.205a17.001 17.001 0 0 0 3.005-3.308c-.091-1.195-1.366-1.562-1.548-2.573-.091-1.93 2.094-2.022 2.732-3.308 2.276-2.114 5.1-3.033 7.831-4.411 2.64-1.379 5.19-2.757 7.467-4.687.547-.46 1.093-.827 1.73-.919 1.366-.092 1.913-1.47 2.914-1.93.091 0 .365 0 .729.184z" fill="#FFF"/><path d="M89.36 57.27c-.91 1.011-1.82 2.022-2.822 3.033 5.463 4.41-2.095 5.054-2.095 7.902 3.096-.091 4.827-3.491 8.014-3.216C83.715 70.595 74.7 75.832 65.32 80.335l-3.005 1.379c2.185-4.32-1.912-10.66-7.467-13.141-3.46-1.47-7.194-2.94-9.835-5.973.729-.827 1.457-.276 2.094.184 3.734 2.389 7.65 4.41 11.383 6.8 1.457.919 3.279 1.286 4.736 2.665 1.82-1.195 3.46-2.481 5.19-3.584 3.643-2.206 7.558-4.043 10.928-6.616 2.367-1.746 4.644-3.584 7.467-4.503.91-.368 1.639-.919 2.55-.276z" fill="#FFF"/><path d="M106.48 60.027c-.91.735-1.457 2.205-3.005 1.746.638-1.195 1.457-2.114 3.005-1.746zM97.83 65.816c-.547 1.379-1.458 2.114-2.915 2.206 1.002-.644 1.913-1.379 2.914-2.206zM10.864 55.8c-1.001.092-1.639-.368-2.003-1.286.729.367 1.366.827 2.003 1.286zM55.03 77.946c.546.276 1.093.643 1.64.919-.547-.276-1.094-.643-1.64-.92zM7.222 53.595c-.546-.276-1.093-.644-1.64-.92.547.276 1.094.552 1.64.92zM52.025 76.2c.455.276.82.551 1.275.827-.456-.276-.82-.551-1.275-.827zM88.996 71.514c-.09.735-.273 1.286-1.183.827.455-.276.82-.552 1.183-.827zM101.199 63.61c-.364.185-.729.46-1.093.644.364-.184.729-.368 1.093-.643zM50.568 75.465c.273.184.546.276.91.46-.273-.184-.546-.276-.91-.46zM86.72 73.26c0 .183-.091.459-.091.643l-.547-.276c.183-.092.456-.184.638-.368zM91.09 70.319c0 .184-.09.46-.09.643-.182-.092-.364-.184-.456-.276.183-.183.365-.275.547-.367zM100.015 64.346c0 .46-.091.827-.637.368.182-.184.455-.276.637-.368zM12.595 56.719l-.82-.551c.546-.276.91-.184.82.55z" fill="#505050"/><path d="M196.086 44.405V26.027c0-2.022.82-3.032 2.914-2.849 3.916.368 7.923-.827 11.839.827 5.828 2.573 7.922 11.579 3.733 16.54-.82 1.012-1.366 2.023-.546 3.033 3.915 5.054 3.096 10.844 2.185 16.449-.82 4.778-5.464 5.605-9.106 5.697-12.931 0-10.928 2.573-10.928-9.924-.09-3.768-.09-7.535-.09-11.395zM226.775 40.914c0 4.87.09 9.648 0 14.518-.091 2.665 1.366 4.32 3.733 4.32 2.368 0 3.825-1.563 3.825-4.228-.091-9.832 0-19.756-.091-29.589 0-1.47.364-2.48 2.185-2.573 1.821 0 3.643 0 3.552 2.39-.091 11.118.09 22.237-.456 33.264-.273 5.514-4.826 7.168-9.561 6.984-4.736-.092-8.196-2.297-8.924-7.719-1.548-10.66-.365-21.41-.729-32.07-.091-3.125 2.55-2.573 4.462-2.757 2.004-.184 2.004 1.287 2.004 2.757v14.703zM171.773 57.362c-1.64-4.594.546-8.178 2.003-11.762 2.459-6.432 5.282-12.681 8.013-19.022 1.184-2.848 3.643-3.124 6.193-2.573 2.185.46 1.548 2.298 1.548 3.952a824.714 824.714 0 0 0 0 21.227c0 1.47.91 2.48 1.548 3.124 1.912 4.595-2.732 7.535-1.821 11.762.273 1.287-1.73 1.103-2.823 1.195-1.002 0-2.459 0-2.277-1.195 1.275-8.638-4.735-6.524-9.288-6.616-1.093-.184-2.095-.092-3.096-.092zM273.945 44.681V63.06c0 2.022-.82 2.85-2.914 2.941-2.094 0-3.551-.46-3.551-2.849V26.027c0-2.481 1.548-2.849 3.642-2.849 1.913 0 2.823.827 2.823 2.757v18.746z" fill="#FFF"/><path d="M29.897 53.778c3.005 1.654 6.1 3.217 9.106 4.963 1.912 1.102 3.642 2.573 5.464 3.859-3.188-1.746-6.557-3.216-9.562-5.33-1.73-1.102-4.098-1.286-5.008-3.492zM9.225 40.638c2.823 4.043 7.832 5.146 11.201 8.546-4.007-2.573-9.47-3.033-11.2-8.546zM22.703 46.151c-4.371-1.746-8.651-3.675-12.203-6.8 4.28 1.746 8.469 3.952 12.203 6.8zM21.792 49.368c2.732.918 5.1 2.297 7.194 4.318-2.823-.827-5.282-2.205-7.194-4.318zM51.57 62.508c-2.186-.919-4.554-1.378-6.01-3.584 2.185.735 4.37 1.654 6.01 3.584zM37.546 54.238c-1.73.184-2.823-.827-3.825-2.022 1.275.643 2.55 1.379 3.825 2.022zM56.032 64.622c-1.366-.644-2.823-1.379-4.19-2.022 1.64.092 3.097.643 4.19 2.022zM26.436 48.265c-1.639.276-2.732-.551-3.551-1.93 1.275.643 2.367 1.287 3.551 1.93zM33.084 52.032c-1.64.184-2.277-1.102-3.096-2.021 1.548-.184 2.185 1.103 3.096 2.021zM41.188 56.535c-1.639.184-2.276-1.01-3.096-2.021 1.64-.276 2.277 1.102 3.096 2.021zM44.922 58.74c-1.64.276-2.277-1.01-3.096-2.021 1.548-.184 2.185 1.103 3.096 2.022zM29.441 49.827c-1.184.184-1.912-.368-2.367-1.286 1.092-.276 1.73.459 2.367 1.286zM9.772 39.351l-.456.46v-.552c.091.092.274.092.456.092z" fill="#505050"/><path d="M321.48 58.465c2.277 1.746 2.094 4.043 1.366 6.34-.729 2.298-2.823 1.379-4.462 1.379-3.643-.092-7.376-.184-11.019 0-2.458.092-3.37-1.103-3.37-3.308V26.027c0-2.113.912-3.308 3.28-3.216 4.461.092 8.832.092 13.294 0 2.277 0 2.641 1.378 2.641 3.124 0 1.93-.09 3.676-2.55 3.951-.637.092-1.366 0-2.003 0-6.739-.091-8.469 2.206-6.739 9.006.365 1.562 1.457 1.93 2.914 1.93 2.004.092 4.28-.92 5.92 1.194 1.001 1.195.637 2.573.455 3.86-.547 1.654-1.73 2.297-3.37 2.297-1.548-.092-3.096-.092-4.553.092-.82.551-.91 1.286-.82 2.021v5.238c0 2.39.82 2.94 3.097 2.39 1.912 0 4.007-.736 5.919.55zM332.772 32.368c.09 6.156 4.007 8.454 7.285 11.118 5.19 4.32 7.194 13.05 4.007 18.379-2.368 3.951-6.284 4.594-10.29 4.043-4.28-.643-6.557-3.584-7.65-7.903-1.001-3.86-.546-5.973 4.007-5.146 1.002.184 1.548.644 1.73 1.563.547 2.113.182 4.87 3.187 5.421 1.548.276 2.823-.551 3.46-1.93 1.185-2.756.365-5.513-1.456-7.627-2.641-3.032-5.737-5.789-8.47-8.73-3.277-3.583-3.368-12.68-.181-15.805 3.824-3.767 10.745-3.86 14.388-.092 1.73 1.746 2.732 3.952 2.64 6.525 0 1.286-.09 2.48-1.73 2.573-1.639 0-3.733.735-4.37-1.93-.456-1.93-1.367-3.768-3.734-3.584-2.277.184-3.005 1.93-2.823 3.125zM155.745 47.99V32.734c0-2.39-.91-3.676-3.46-3.308-2.55.46-3.187-.827-3.278-3.124-.091-2.481 1.093-3.033 3.278-2.94 4.826.183 9.744.091 14.57 0 2.095 0 2.641 1.01 2.641 2.848 0 1.838-.364 3.4-2.55 3.216-3.551-.368-4.553 1.287-4.553 4.687.182 9.464 0 18.93.091 28.394 0 3.124-2.003 3.308-4.28 3.4-2.55.092-2.459-1.562-2.459-3.308V47.99zM146.275 44.497c0 6.065-.091 12.13 0 18.195 0 2.665-1.366 3.216-3.643 3.216-2.276 0-3.824-.367-3.824-3.216.09-12.13.09-24.168 0-36.297 0-2.757 1.639-3.309 3.824-3.309 2.095.092 3.734.552 3.643 3.309-.091 6.064 0 12.13 0 18.102z" fill="#FFF"/><path d="M112.673 39.81c0 .92-.456 1.195-1.275.92.364-.276.82-.644 1.275-.92zM111.125 40.914c-.182.735-.638.918-1.275.55.455-.183.91-.367 1.275-.55z" fill="#505050"/><path d="M285.783 41.373c-1.457 1.562-1.183 3.124-1.092 4.686.09 5.973.182 11.855.182 17.827 0 1.655-1.184 2.298-2.732 2.298-1.821 0-3.278-.643-3.278-2.665-.092-12.681 0-25.27 0-37.951 0-1.287.546-2.482 2.003-2.298 2.55.368 6.101-1.654 7.285 2.298 1.093 3.675 1.548 7.443 2.368 11.118.273 1.103.09 2.482 1.82 2.941 2.004-1.562 1.458-3.86 1.458-5.973 0-2.573-.182-5.238-.273-7.81-.091-2.574 1.82-2.85 3.642-2.941 1.821 0 2.459 1.286 2.459 2.94v35.379c0 1.93.91 4.41-2.368 4.962-3.551.551-4.826-1.562-5.555-4.503-1.639-6.249-3.369-12.59-5.1-18.838-.181-.46-.454-.827-.819-1.47z" fill="#FFF"/><path d="M209.017 34.849c-.364 2.113-.09 4.778-3.187 4.962-2.094.092-2.64-1.562-2.276-3.216.455-2.206-1.822-5.79 2.276-6.34 2.914-.369 2.732 2.48 3.187 4.594zM204.373 52.951c.91-1.562-1.366-4.686 1.821-4.686 2.823 0 2.277 3.032 2.277 4.962 0 1.838.82 4.87-2.277 4.687-3.187-.184-.91-3.309-1.82-4.963zM180.606 50.654c-1.64-2.113-.091-3.216 1.183-4.962.456 2.113.547 3.584-1.183 4.962z" fill="#0F1D3E"/></g></svg>