<svg width="158" height="136" viewBox="0 0 158 136" xmlns="http://www.w3.org/2000/svg"><title>0633C090-4467-493E-9DC8-44DE7DF4F082</title><g fill="#FFF" fill-rule="evenodd"><path d="M63.15 125.432V94.281c.091-4.043.91-4.87 4.917-4.319.911.092 1.73.552 2.641.643.91.092 1.73 0 2.823 0 .729-2.664 1.457-5.237 2.186-8.086-3.552-3.124-7.923-1.838-12.476-2.297V58.627c-1.64-.184-2.823-.276-4.007-.46-1.457-.275-3.733.644-3.824-2.021 0-3.032 2.55-2.022 4.097-2.022 8.014-.092 16.119.184 24.132-.092 5.1-.183 10.108-1.01 15.208-1.562 1.366-.092 2.731-.275 4.097-.184 3.097.092 4.554 1.655 3.916 4.687-1.184 5.973-2.55 11.946-4.007 17.827-.182.827-1.457 2.114-1.912 2.022-1.002-.276-2.094-1.195-2.459-2.114-.82-1.746-1.092-3.767-1.73-5.697-3.187-9.649-7.922-12.314-18.577-10.2 0 8.362-.09 16.908.091 25.454 0 1.286 1.548 2.94 2.823 3.767 6.193 4.227 13.022 6.341 20.58 6.341 7.195 0 7.65.551 7.65 7.903 0 7.167.09 14.427 0 21.594-.091 4.687-1.093 5.881-5.646 5.881-15.025.092-30.05.092-44.985.092-1.457 0-3.46.092-3.005-2.205.182-.827 1.821-1.47 2.914-1.838 1.001-.368 2.458-.276 4.553-.368zm15.116-34.459v34.735c3.734 0 7.103.092 10.564 0 4.006-.092 5.372-1.103 5.555-5.054.273-5.146.273-10.384 0-15.53-.092-1.562-1.184-3.583-2.46-4.502-4.188-3.308-8.741-6.249-13.659-9.649z"/><path d="M24.63 93.822c2.459 2.573 1.275 4.41.091 6.34a7438.632 7438.632 0 0 0-16.118 27.752c-.728 1.286-1.366 2.572-2.276 4.318h144.79c-.547-1.378-.91-2.48-1.548-3.4a1343.226 1343.226 0 0 0-11.292-19.389c-1.093-1.838-1.821-3.492.364-5.88 6.192 10.567 12.111 20.859 18.486 31.702H.407c8.287-14.151 16.21-27.66 24.223-41.443z"/><path d="M74.169 82.978c-.638 2.022-1.184 4.044-1.73 5.973-.183.092-.365.184-.456.184-9.47-1.194-12.476.46-16.3 9.557-2.095 5.054-3.825 10.292-5.828 15.713a72.203 72.203 0 0 1 4.098 1.93c-1.73.551-3.006 1.01-4.554 1.47v11.67c-2.003.184-4.188.368-7.194.644a605.125 605.125 0 0 1 1.64-12.314c-.547-.275-.82-.55-1.002-.55-5.464.918-7.558-2.114-9.197-6.893-2.55-7.351-5.828-14.427-8.742-21.686-1.002-2.481-1.73-5.146-4.918-6.157h21.582c.091.276.091.46.182.735-1.639.368-3.187.735-5.282 1.195 3.46 8.637 6.83 17.092 10.2 25.454.273 0 .637-.092.91-.092 1.366-3.4 2.641-6.8 4.007-10.108 1.457-3.492 2.914-7.076 4.644-10.476 3.552-7.443 9.744-9.649 17.94-6.249zM120.884 110.638c3.278-8.362 6.647-16.633 10.108-25.362-2.095-.368-3.734-.735-5.373-1.103v-.735h20.945c-1.366 1.93-3.097 3.86-4.098 6.065-3.37 7.719-6.648 15.438-9.562 23.34-1.366 3.676-3.096 5.698-7.194 5.054-.728-.092-1.457.184-2.367.368.455 4.043.91 7.903 1.365 11.946h-7.011c-.911-4.687 4.189-10.843-4.736-13.14 1.73-.644 2.823-1.103 3.825-1.563.091-.276.273-.643.182-.827-1.73-4.87-3.37-9.832-5.282-14.61-1.001-2.482-2.458-4.963-4.097-7.076-3.37-4.32-7.832-4.687-12.84-2.573-.729-2.39-1.275-4.411-1.822-6.34 6.921-3.585 13.933-1.747 17.394 4.961 2.914 5.698 5.19 11.762 7.74 17.643.546 1.379 1.093 2.757 1.73 4.136.364-.276.729-.184 1.093-.184z"/><path d="M125.62 80.865c-.82.827-1.549 1.47-2.46 2.297-4.735-8.178-9.38-16.08-13.932-23.984-.547-1.01-.547-2.297-.91-3.492-.456-1.286-.73-3.032-1.64-3.583-3.643-2.022-4.917-5.698-6.83-9.006a5541.327 5541.327 0 0 1-18.212-31.243c-.729-1.286-1.64-2.481-2.823-4.319-1.184 1.838-2.004 3.216-2.823 4.595-12.658 21.778-25.407 43.556-38.064 65.335-1.002 1.746-1.73 4.227-5.373 2.757A68228.545 68228.545 0 0 0 78.903.643c15.755 27.108 31.144 53.573 46.716 80.222z"/></g></svg>