<svg width="27" height="26" viewBox="0 0 27 26" xmlns="http://www.w3.org/2000/svg"><title>D288F84F-0746-42F9-A901-AA8C06F68709</title><g stroke="#0F1D3E" fill="none" fill-rule="evenodd"><path d="M13.68 1.362c-6.453 0-11.702 5.243-11.702 11.69 0 6.447 5.249 11.69 11.703 11.69 6.453 0 11.702-5.243 11.702-11.69 0-6.447-5.249-11.69-11.702-11.69z" stroke-width="2"/><path d="M12.691 9.17a.479.479 0 0 0-.335-.139.479.479 0 0 0-.334.138.47.47 0 0 0 0 .67l3.217 3.213-3.217 3.214a.47.47 0 0 0 0 .668.47.47 0 0 0 .669 0l3.552-3.548a.47.47 0 0 0 0-.668L12.69 9.169z" fill="#FFF"/></g></svg>