<svg width="381" height="70" viewBox="0 0 381 70" xmlns="http://www.w3.org/2000/svg"><title>DAEEA37A-0308-47C4-A83C-9474A0DE6DA0</title><g fill="#FFF" fill-rule="evenodd"><path d="M191.403.773h-23.79V22.96H146.85V.773h-23.79v7.539c-6.056-4.954-13.625-7.54-21.411-7.54-8.218 0-15.572 2.801-21.411 7.54V.772h-23.79v7.54C50.392 3.358 42.822.772 35.036.772 16.221.773.866 16.068.866 34.808c0 18.74 15.355 34.035 34.17 34.035 7.786 0 15.356-2.585 21.412-7.54v7.54h23.79v-7.54c5.84 4.74 13.409 7.54 21.411 7.54 7.786 0 15.355-2.585 21.411-7.54v7.54h23.79V46.655h20.763v22.187h23.79V46.655h22.276V22.96h-22.276V.773zM78.508 67.119H57.745V57.64l-1.297 1.077c-6.056 5.385-13.626 8.185-21.844 8.185-17.95 0-32.658-14.648-32.658-32.527 0-17.878 14.707-32.526 32.658-32.526 8.002 0 15.788 3.015 21.844 8.185l1.297 1.077V1.634h20.763v7.324c-6.921 6.247-11.03 15.079-11.03 24.988 0 9.908 4.325 18.956 11.03 24.987v8.186zm66.828 0h-20.762V57.64c-5.84 5.816-14.058 9.478-23.141 9.478-17.951 0-32.658-14.433-32.658-32.527S83.482 2.065 101.433 2.065c9.083 0 17.085 3.662 23.141 9.478V2.065h20.762V67.12zm66.83-42.651v20.679h-22.277v22.187h-20.762V45.147H146.85v-20.68h22.277V2.282h20.762v22.187h22.276zM229.035.773h1.73l6.704 15.51h-1.73l-2.163-5.17h-7.137l-2.162 5.17h-1.73l6.488-15.51zm3.893 8.831L229.9 2.496l-3.028 7.108h6.056zM239.848.773h4.326c7.353 0 8.867 4.523 8.867 7.754 0 3.662-2.595 7.755-8.867 7.755h-4.326V.772zm4.326 14.001c5.19 0 7.353-3.23 7.353-6.247 0-2.585-1.514-6.246-7.353-6.246h-2.812V14.99h2.812v-.216zM254.339.773h1.73l5.407 13.57 5.407-13.57h1.73l-6.488 15.51h-1.514zM273.587.773h1.73l6.705 15.51h-1.73l-2.163-5.17h-7.137l-2.163 5.17h-1.73l6.488-15.51zm3.893 8.831l-3.028-7.108-3.028 7.108h6.056zM284.4.773h2.164l8.65 12.709V.772h1.73v15.51h-1.73l-9.3-13.57v13.57h-1.513zM313.165 4.65c-.432-.646-1.946-2.8-5.19-2.8-3.893 0-6.488 3.015-6.488 6.462 0 3.877 3.027 6.678 6.704 6.678 1.946 0 3.893-.862 5.19-2.8h1.947c-1.514 2.584-4.11 4.308-7.137 4.308-4.542 0-8.218-3.232-8.218-7.97 0-4.524 3.46-7.97 8.002-7.97 3.244 0 5.84 1.507 7.137 4.307h-1.947V4.65zM318.14.773h8.65V2.28h-6.92v5.385h6.704v1.508h-6.704v5.6h6.92v1.508h-8.65zM330.035.773h4.325c7.354 0 8.867 4.523 8.867 7.754 0 3.662-2.595 7.755-8.867 7.755h-4.325V.772zm4.325 14.001c5.19 0 7.354-3.23 7.354-6.247 0-2.585-1.514-6.246-7.354-6.246h-2.811V14.99h2.811v-.216zM229.035 27.053h1.73l6.704 15.509h-1.73l-2.163-5.17h-7.137l-2.162 5.17h-1.73l6.488-15.51zm3.893 8.831l-3.028-7.108-3.028 7.108h6.056zM255.204 35.453c-.433 4.309-3.677 7.324-8.219 7.324-5.406 0-8.434-3.877-8.434-7.97 0-4.308 3.244-7.97 8.434-7.97 3.244 0 5.84 1.508 7.137 4.308h-1.946c-1.514-2.8-4.326-3.015-5.407-3.015-4.974 0-6.92 3.877-6.92 6.462 0 3.231 2.595 6.678 6.92 6.678 2.595 0 5.407-1.508 6.272-4.524h-8.65v-1.293h10.813zM258.232 27.053h4.325c5.84 0 6.056 3.877 6.056 4.954 0 2.585-1.73 4.524-4.542 4.524l4.326 5.816h-1.947l-5.19-6.894h1.297c.865 0 4.542 0 4.542-3.446 0-1.723-.865-3.447-4.542-3.447h-2.811v14.002h-1.514v-15.51zM271.641 27.052h1.514v15.51h-1.514zM289.591 30.93c-.432-.646-1.946-2.8-5.19-2.8-3.893 0-6.488 3.015-6.488 6.462 0 3.877 3.027 6.678 6.704 6.678 1.947 0 3.893-.862 5.19-2.8h1.947c-1.514 2.584-4.109 4.307-7.137 4.307-4.542 0-8.218-3.23-8.218-7.97 0-4.523 3.46-7.97 8.002-7.97 3.244 0 5.84 1.508 7.137 4.308h-1.947v-.215zM296.08 27.053v9.478c0 1.077 0 4.954 3.676 4.954 3.677 0 3.677-3.877 3.677-4.954v-9.478h1.514v9.478c0 4.523-2.163 6.246-5.407 6.246-3.028 0-5.407-1.723-5.407-6.246v-9.478h1.947zM308.84 27.053h1.514v14.001h6.488v1.508h-8.002zM320.519 28.345h-3.46v-1.292h8.65v1.292h-3.46v14.217h-1.73zM329.602 27.053v9.478c0 1.077 0 4.954 3.677 4.954s3.677-3.877 3.677-4.954v-9.478h1.513v9.478c0 4.523-2.162 6.246-5.406 6.246-3.028 0-5.407-1.723-5.407-6.246v-9.478h1.946zM342.362 27.053h4.326c5.84 0 6.056 3.877 6.056 4.954 0 2.585-1.73 4.524-4.542 4.524l4.325 5.816h-1.946l-5.19-6.894h1.297c.865 0 4.542 0 4.542-3.446 0-1.723-.865-3.447-4.542-3.447h-2.812v14.002h-1.514v-15.51zM360.962 27.053h1.73l6.705 15.509h-1.73l-2.163-5.17h-7.137l-2.163 5.17h-1.73l6.488-15.51zm3.893 8.831l-3.028-7.108-3.028 7.108h6.056zM371.776 27.053h1.514v14.001h6.488v1.508h-8.002zM226.007 54.625h-3.677v-1.293h8.651v1.293h-3.46v14.217h-1.514zM232.928 53.332h8.434v1.293h-6.92v5.6h6.704v1.508h-6.705v5.601h6.921v1.508h-8.434zM256.934 57.21c-.433-.646-1.946-2.8-5.19-2.8-3.894 0-6.489 3.015-6.489 6.462 0 3.877 3.028 6.677 6.705 6.677 1.946 0 3.893-.861 5.19-2.8h1.947c-1.514 2.585-4.11 4.308-7.137 4.308-4.542 0-8.219-3.23-8.219-7.97 0-4.523 3.46-7.97 8.002-7.97 3.245 0 5.84 1.508 7.137 4.308h-1.946v-.215zM261.692 53.332h1.514v6.894h8.002v-6.894h1.514v15.51h-1.514v-7.324h-8.002v7.324h-1.514zM276.182 53.332h1.947l8.867 12.71v-12.71h1.514v15.51h-1.514l-9.3-13.57v13.57h-1.514zM307.542 60.872c0 4.523-3.676 7.97-8.218 7.97s-8.219-3.231-8.219-7.97c0-4.74 3.677-7.97 8.219-7.97 4.758.215 8.218 3.446 8.218 7.97m-1.514 0c0-3.878-2.811-6.463-6.704-6.463s-6.705 2.8-6.705 6.678 3.028 6.462 6.705 6.462c3.893 0 6.704-2.8 6.704-6.677M310.137 53.332h1.73v14.002h6.273v1.508h-8.003zM334.36 60.872c0 4.523-3.676 7.97-8.218 7.97s-8.219-3.231-8.219-7.97c0-4.74 3.677-7.97 8.219-7.97 4.758.215 8.218 3.446 8.218 7.97m-1.514 0c0-3.878-2.811-6.463-6.704-6.463s-6.705 2.8-6.705 6.678 3.028 6.462 6.705 6.462c3.893 0 6.704-2.8 6.704-6.677M352.96 61.733c-.433 4.309-3.677 7.324-8.219 7.324-5.406 0-8.434-3.877-8.434-7.97 0-4.308 3.244-7.97 8.434-7.97 3.245 0 5.84 1.508 7.137 4.308h-1.946c-1.514-2.8-4.326-3.016-5.407-3.016-4.974 0-6.92 3.878-6.92 6.463 0 3.23 2.595 6.677 6.92 6.677 2.595 0 5.407-1.507 6.272-4.523h-8.65v-1.293h10.813zM355.555 53.332h1.514v15.51h-1.514zM360.53 53.332h8.434v1.293h-6.92v5.6h6.704v1.508h-6.705v5.601h6.921v1.508h-8.435zM372.425 64.534c0 .646.216 3.23 3.244 3.23 2.162 0 3.244-1.507 3.244-3.23 0-1.939-1.514-2.585-2.163-2.8-1.946-.862-5.407-.862-5.407-4.524 0-1.723 1.298-4.093 4.326-4.093 2.811 0 4.109 2.154 4.325 4.093h-1.514c0-1.077-.649-2.8-2.811-2.8-1.947 0-2.596 1.507-2.596 2.8 0 1.723 1.082 2.154 3.028 2.8 1.73.43 4.326 1.293 4.326 4.524 0 2.154-1.514 4.523-4.758 4.523-2.596 0-4.758-1.938-4.758-4.523h1.514z"/></g></svg>