<svg width="26" height="26" viewBox="0 0 26 26" xmlns="http://www.w3.org/2000/svg"><title>B105C2AE-1E53-4F73-90BD-EEEE457B2CDF</title><g stroke="#FBFBF7" fill="none" fill-rule="evenodd"><path d="M13.01 1.02c-6.612 0-11.99 5.378-11.99 11.99S6.398 25 13.01 25 25 19.622 25 13.01 19.622 1.02 13.01 1.02z" stroke-width="2"/><path d="M11.996 9.028a.49.49 0 0 0-.343-.142.49.49 0 0 0-.343.142.482.482 0 0 0 0 .685l3.297 3.297-3.297 3.296a.482.482 0 0 0 0 .686.482.482 0 0 0 .686 0l3.64-3.64a.482.482 0 0 0 0-.685l-3.64-3.64z" fill="#FFF"/></g></svg>