<svg width="287" height="215" viewBox="0 0 287 215" xmlns="http://www.w3.org/2000/svg" xmlns:xlink="http://www.w3.org/1999/xlink"><title>A8E25602-CBC8-4023-87F6-74759A9CB8AB</title><defs><path d="M52.975 7.228l5.986-.616 2.976 1.13 10.716-2.774 6.726-1.644 4.207.659 2.36-2.098 2.249 2.098s.255-1.01 2.047-1.53c4.052-1.176 13.612-1.557 29.145 5.739 22.405 10.522 24.494 18.129 24.494 18.129h-2.468l-1.614 1.711 4.082 3.328 1.33 2.377-6.077 6.56-4.272-2.757-1.994 1.806 2.564 5.018 1.898 6.025-.949 2.762-4.462 3.515h-4.367l-1.709 1.79.475 2.603 2.373 3.483.475 3.232-3.323 2.092-6.456-4.54-2.183-4.267h-2.184l-4.652-7.908-3.702 1.632-8.924 7.287-.76 5.134-2.658 3.138-4.082-9.283-2.047-6.904s-2.242.312-2.758 0c-.515-.311-5.138-4.77-5.138-4.77h-7.646l-3.76-2.008s-1.38 1.255-3.886 0c-2.506-1.255-5.139-3.013-5.139-3.013s-.561 4.43 1.63 6.025c2.19 1.596 6.643 0 6.643 0l3.76 2.762s-3 4.839-7.771 7.908c-4.771 3.07-11.155 4.268-11.155 4.268s-1.38-5.649-2.883-10.042c-1.504-4.393-5.264-6.527-5.264-6.527l2.757 7.908 1.755 6.527 3.635 2.761 2.256 3.39 8.146-.754-3.509 6.653L49.34 88.55l1.378 5.973v6.83l-3.885 3.139s-.654.766-.752 1.506c-.099.74 0 4.142 0 4.142l-2.13 2.385s-.604 2.878-1.254 4.143c-.65 1.264-3.134 4.393-3.134 4.393l-6.768-.502-4.387-9.289-3.635-10.544.502-8.16-2.257-7.656s2.548-2.834 1.755-4.77c-.792-1.936-4.888-2.887-4.888-2.887s-.671-.694-3.008-.502c-2.337.191-4.638 1.13-4.638 1.13s-2.698-4.233-2.883-7.156c-.031-.504-.023-5.17 1.38-9.665.856-2.745 3.383-6.276 3.383-6.276l3.635-6.025s3.403-2.594 5.264-3.64c1.862-1.048 3.886-1.507 3.886-1.507v2.87l5.278 2.277 3.078-2.79s2.798.924 4.303.924 5.265-.925 5.265-.925l2.757-2.356 1.755-4.265h-7.206l-2.155-3.86-3.283 3.86-2.257-4.476-2.668-1.133v4.215l-3.796-1.85-3.202 2.364-4.39 5.898-3.079 2.117 1.54-4.727 4.174-3.288v-2.98l20.245-23.017 9.712-5.24z" id="a"/></defs><g fill="none" fill-rule="evenodd"><g transform="translate(-48 -11.113)"><ellipse fill="#6DC0DF" cx="248" cy="141" rx="87" ry="82"/><ellipse fill="#6DC0DF" cx="135" cy="141.955" rx="87" ry="83.045"/><g fill="#0F1D3E"><g transform="translate(166.193 59.143)"><path d="M26.129 31.576c2.269-3.041 6.05-4.815 7.26-8.819-.907-.152-.756-.76-.403-1.52.807-1.724 2.269-2.737 3.63-3.852 2.521-2.079 4.992-4.207 7.563-6.235a11.525 11.525 0 0 1 2.522-1.52c2.47-1.115 4.89-2.484 7.462-3.092 2.269-.557 4.79-.355 7.16-.152.655.05 1.31 1.166 2.42.558.454-.66.403-2.028 1.815-1.774.202.05.353.507.605.912 1.009-.355 2.219-.76 3.379-1.216 1.764-.71 3.58-.76 5.395-.913 1.16-.101 2.319-.101 3.479-.81.806-.507 2.269 0 3.378.05.353 0 .655.152 1.16.304.05-.608.15-1.064.201-1.571 1.513-.253 2.975-1.825 4.236-.152 1.11 0 2.017-.05 2.924-.05h1.866c2.723 0 5.496-.254 8.219.05 5.193.557 10.235 1.774 15.076 3.903 5.849 2.534 11.395 5.524 16.588 9.224 6.656 4.764 12.555 10.34 17.446 16.928 1.11 1.47 1.311 3.599 1.916 5.424-.1.05-.201.152-.353.202-.252-.253-.605-.456-.807-.76-.252-.355-.403-.76-.605-1.166-.705-1.419-1.361-2.889-2.067-4.308-.202-.355-.403-.81-.706-1.013a331.263 331.263 0 0 0-5.496-3.852c-.403.557-.756 1.013-1.26 1.672 1.31.963 2.622 1.723 3.731 2.737.958.912 2.118 1.875 1.613 3.548l-.907-1.217c-.555-1.267-1.714-1.875-2.723-2.635a18.988 18.988 0 0 1-1.563-1.267c-.908-.76-1.059-1.571-.303-2.585.757-1.014 1.564-1.368 2.673-.659.1.05.202.101.353.152.05 0 .1-.05.252-.101-.353-.456-.605-.913-.958-1.318-7.463-7.4-15.933-13.38-25.513-17.587-2.925-1.318-6-2.332-9.026-3.345-1.059-.355-2.32-.203-3.479-.406-1.966-.304-3.882-.912-5.798-.963-2.673-.101-5.345.102-8.169.203.303 2.23-.655 3.244-2.823 3.548-.101-.862-.252-1.724-.353-2.585-.152-1.267-.706-1.52-2.32-1.115 0 .203-.05.456-.05.659-.05 1.52-.101 1.57-1.614 1.317-.806-.152-1.563-.354-2.37-.506-.504-.102-1.109-.355-1.411-.152-2.47 1.419-5.295.861-7.916 1.57-1.261.356-2.471.761-3.681 1.167-.151.05-.353.253-.504.202-1.765-.202-3.076 1.318-4.74 1.369-.353 0-.656.253-1.008.456-1.16.71-2.27 1.571-3.53 2.18-.504.253-1.513.202-1.866-.102-.453-.406-.756-1.318-.655-1.926.05-.406.908-.811 1.513-1.014.756-.253 1.563-.253 2.621-.456-4.184-.557-5.95-.05-12.504 3.345.05.102.1.254.151.254.807-.203 1.715-.457 2.118.456.454 1.013-.656 1.318-1.21 1.824-.706.66-1.563 1.166-2.37 1.774-.05.051 0 .102-.05.406.907-.355 1.714-.76 2.571-.912.454-.102 1.008.152 1.513.253-.202.507-.303 1.115-.605 1.571-.202.304-.706.558-1.11.608-1.361.254-2.47.76-2.773 2.332-.05.152-.201.405-.353.405-1.815.203-2.32 1.977-3.53 2.839-1.764 1.317-3.78 2.382-5.848 3.04-2.622.812-4.538 2.332-6.353 4.258a57.21 57.21 0 0 1-3.933 3.903c-1.009.912-1.765 1.723-1.715 3.243.101 1.673-.756 3.092-2.42 3.548-2.773.811-2.874 3.193-3.73 5.575 2.016-.506 2.621-1.925 3.428-3.193 1.16-1.824 2.32-3.649 3.781-5.22.858-.963 2.219-1.52 3.48-2.027.453-.203 1.21.202 1.764.506.404.203.605.71 1.21.862-.151-.507-.504-.963-.504-1.47 0-.71.05-1.723.454-1.976.555-.355 1.513-.254 2.218 0 .706.253 1.412.76 1.916 1.368.404.507.656 1.267.757 1.977.1.912.252 1.57 1.21 1.774-.05-2.535 1.966-3.903 4.286-2.89v-.05c.1.76.151 1.47.252 2.23.151 1.267.554 1.571 1.815 1.318 1.513-.254 3.025-.558 4.538-.811 1.11-.203 1.765.304 1.613 1.42-.302 2.28-1.36 4.257-2.823 5.98-.353.405-1.059.608-1.664.76-1.16.253-2.37.507-3.58.507-1.714 0-3.48-.05-5.093-.456-1.16-.304-1.764-.051-2.218.912-1.11 2.534-2.27 1.977-3.983 1.267-.656-.253-1.362-.659-2.068-.76-2.168-.406-2.571-1.065-1.714-3.497-1.916.202-3.48.963-4.891 2.027-1.008.811-1.815 1.875-3.227 2.027-.353.051-.706.507-.908.862a248.27 248.27 0 0 0-2.773 5.018c-.958 1.723-1.966 3.446-2.874 5.17-.958 1.925-1.764 3.953-1.664 6.234.05.71-.15 1.47-.353 2.179-.857 2.635.202 5.018 1.06 7.4.856 2.28 2.218 2.23 4.285.507.504-.406.958-.862 1.714-1.065-.302.406-.605.76-1.16 1.47.807-.253 1.261-.405 1.715-.507 0 .102 0 .254-.05.304-1.412 1.166-3.076 1.774-4.84 2.078-.354.051-.959-.101-1.11-.354-.706-1.115-1.412-2.281-1.967-3.498-1.714-3.7-.302-7.5.101-11.2.252-2.332 1.866-4.512 2.925-6.742.454-1.013 1.008-1.976 1.512-2.889 1.009-1.774 2.068-3.497 3.127-5.27.1-.203.352-.457.504-.457 1.512.101 2.218-1.064 3.227-1.875 1.966-1.571 4.235-2.281 6.958-2.94-.353 1.318-.656 2.332-.958 3.447.202.152.454.405.756.557 1.009.406 2.067.66 3.126 1.065 1.463.608 1.816.506 2.572-.963.807-1.521 1.916-1.977 3.479-1.318 1.916.76 3.933.963 5.95 0 .403-.203 1.008-.355 1.411-.203 1.463.405 2.27-.304 2.824-1.47.706-1.47 1.311-3.04 2.067-4.815-2.773.507-5.092.913-7.815 1.369-.302-1.47-.655-2.94-1.008-4.663-.807.557-1.513 1.064-2.32 1.571.303.558.555 1.014.807 1.42-.504.557-.958 1.114-1.462 1.621-.202.203-.555.405-.757.355-.201-.05-.403-.406-.504-.66-.353-1.317-.605-2.685-.958-4.003-.1-.304-.353-.608-.655-.811-.404-.304-.958-.406-1.26-.71-.505-.506-1.06-1.267-1.564-.405-.252.456.202 1.52.656 2.078.453.608 1.26.912 1.714 1.216-.656 1.217-1.26 2.18-1.815 3.193.454-2.635-2.622-2.686-3.227-4.865-1.462 1.52-3.53 1.672-4.639 3.649-.958 1.673-2.37 3.092-3.328 4.815-.504.862-1.412 1.47-2.168 2.23-.958.963-1.714.608-2.42-.456.252-.76.655-1.47.807-2.23.453-2.129 1.462-3.65 3.73-4.41 1.866-.608 2.32-2.382 1.513-4.46a63.856 63.856 0 0 1 1.513-1.926c.706-.557 1.462-1.064 2.219-1.571z"/><path d="M142.942 32.2l.907 1.216c-.151 1.217-.1 2.484-.454 3.65-.554 1.672-.756 1.672-2.37.962-.352.811-.756 1.622-1.109 2.383.605 1.115 1.26 2.23 1.765 3.395.403.811.1 1.47-.857 1.673-.958.203-1.21-.558-1.16-1.267.101-1.723-1.462-2.585-1.916-4.004-.151-.406-1.462-.456-2.47-.71-.051-.304-.152-.81-.253-1.47-.706.457-1.31.811-2.017 1.268.606.963 1.261 1.723 2.572 1.824 1.008.05 1.16.66.353 1.318-.857.659-.605 1.166-.151 2.027.907 1.724 1.563 3.548 2.319 5.373.1.253.05.659-.05.912-.404 1.064-.807 2.18-1.311 3.244-.757 1.47-1.967 2.28-3.58 2.534-1.26.203-2.42.71-3.832 1.166-.555-.608-1.311-1.267-2.42-.254-1.06.963-1.261 1.977-.505 3.092.454.659.908 1.318 1.513 1.875 1.16 1.115 1.613 2.433 1.714 3.954.101 1.368.05 2.534-1.563 3.142-.857.304-1.462 1.216-2.32 2.027-.856-2.534-2.772-4.004-4.739-5.625-.907 1.216-1.008 2.686-.706 3.852.353 1.216 1.06 2.584 2.068 3.345 2.168 1.723 2.52 3.902 2.672 6.589-.958-.305-1.714-.558-2.521-.811l.05.05c-.706-1.824-1.059-3.902-2.218-5.423-1.412-1.774-1.16-3.548-1.311-5.524-.152-2.23-1.06-4.36-1.765-6.843-.756.456-1.11.76-1.513.963-1.059.558-1.764.304-1.714-.912.05-1.825-.958-3.092-2.067-4.41-.656-.76-1.06-1.773-1.614-2.736-.706.253-1.31.557-1.966.658-.656.152-1.311.152-1.563.152-2.774 2.281-5.244 4.46-7.866 6.488-.807.608-1.16 1.216-1.059 2.18.252 3.142-.706 5.727-3.53 7.805-1.815-2.484-2.621-5.474-4.084-8.11-1.462-2.737-2.117-5.626-2.319-8.413-1.008 0-1.866.152-2.672-.05-.858-.204-1.362-.863-1.463-1.927-.05-.456-1.058-.76-1.411-1.267-1.463-2.18-3.58-2.078-5.799-1.825-2.723.305-5.395.457-7.614-1.672-.252-.203-.857-.203-1.21-.05-2.47 1.013-3.933-.457-5.445-2.028-.353-.355-.504-1.014-.908-1.115-.554-.203-1.21-.05-1.815-.102 0 .507-.151 1.115.1 1.47.656 1.166 1.463 2.23 2.27 3.396.151-.101.353-.253.706-.507.151.66.252 1.217.403 1.825 2.27.861 3.53-.66 4.992-2.18.504.76.807 1.52 1.361 2.028.504.456 1.362.608 1.967 1.013 1.31.862 1.361 1.724.403 2.89-.655.861-1.16 1.875-1.966 2.584-1.26 1.065-2.622 1.977-4.034 2.839-2.168 1.267-4.286 2.584-6.605 3.598-2.068.912-4.286 1.369-6.454 2.078-.05-.203-.101-.456-.202-.659.05-2.585-1.21-4.865-1.714-7.298h-.05c1.764.861 1.966 2.585 2.268 4.257.152.862.202 1.774.353 2.839 3.782-1.268 7.16-2.433 10.135-4.663.706-.558 1.765-.66 2.47-1.166 1.362-.912 2.875-1.673 3.58-3.396.353-.862 1.312-1.419 2.169-2.382a249.058 249.058 0 0 0-3.883-2.585c-.958.406-1.815 1.014-2.723 1.115-2.269.304-3.53-.456-4.588-2.534-.454-.862-1.059-1.673-1.563-2.484-.807-1.317-.756-2.23.202-2.94.958-.709 2.269-.557 3.176.406.303.304.454.71.757 1.065 1.16 1.317 2.37 2.331 4.336 1.774 1.008-.305 1.815-.102 2.723.608 1.563 1.216 3.58 1.165 5.496 1.216.655 0 1.36-.05 2.016-.203 2.068-.354 3.782.051 5.093 1.825.303.355.756.76 1.21.811 1.16.203 1.765.558 1.563 1.926-.1.659.504.76 1.16.355 1.815-1.065 2.269-.862 2.269 1.216 0 4.106 2.067 7.45 3.58 10.999.554 1.267 1.16 2.432 1.815 3.75 2.37-1.318 2.521-3.598 2.47-5.676-.05-1.724.404-2.687 1.765-3.7 2.32-1.724 4.387-3.802 6.555-5.728.353-.304.756-.76 1.16-.81 1.21 0 2.269-.102 3.277-.913.202-.152 1.21.152 1.412.507 1.26 2.483 3.883 4.257 3.832 7.4.202.05.353.152.403.101 2.017-.81 2.975-.304 3.48 1.774.201.76.353 1.52.554 2.433 2.118-.76 3.278.557 4.437 1.723.757.76 1.362 1.723 2.068 2.585l.353-.355c.1 0 .252 0 .353-.05.705-.609 1.865-1.115 2.067-1.876.353-1.47-.252-2.94-1.26-4.105-.606-.71-1.261-1.369-1.766-2.129-.806-1.216-.756-2.483 0-3.7.757-1.216 1.917-1.419 3.227-1.216 3.48.557 6.454-1.217 7.665-4.41.907-2.432-.202-4.46-1.311-6.335-.605-1.014-1.009-1.977-.807-2.636-.756-.963-1.311-1.723-1.866-2.432-.554-.71-.504-1.369.202-1.926.504-.355.958-.811 1.563-1.014.403-.152 1.21-.05 1.311.152.655 1.52 2.37 1.115 3.227 2.23 1.31-.76.857-3.497 3.177-2.433.958-1.216 1.21-2.433.554-3.75-.252-.406-.353-.913.404-1.166z"/><use xlink:href="#a"/><path d="M39.944 153.876c1.916.76 3.53 1.318 5.042 1.977 3.076 1.317 6 3.091 9.58 3.142 1.463 0 3.026.608 4.387 1.267 1.311.659 2.521.659 3.731.203 1.362-.507 2.572-.456 3.933-.152.756.202 1.614-.152 2.42-.355 1.916-.456 3.681-.101 5.547.608 1.815.71 3.781.963 5.748 1.166 2.622.304 5.294.355 7.916.456h.202c2.622 1.52 4.638-.659 6.857-1.267.403-.101.655-.811.756-.963 1.815-.355 3.429-.963 4.992-.862 1.311.102 2.47-.101 3.68-.304 1.06-.203 2.068-.507 3.026-1.165 1.059-.71 2.521-.71 3.832-1.065.656-.203 1.26-.507 1.916-.71.404-.1.958-.354 1.21-.151 1.513 1.013 2.673-.051 3.933-.558 1.059-.456 2.168-.76 3.278-1.166 1.058-.355 2.117-.659 3.126-1.064a65.634 65.634 0 0 0 4.286-1.977 6.404 6.404 0 0 0 1.36-.912c2.119-1.673 4.539-2.686 6.909-3.903.1.102.15.203.252.304-.605.609-1.21 1.318-1.866 1.876-5.647 4.41-11.647 8.261-18.202 11.2-3.731 1.673-7.614 3.042-11.647 4.005-4.286 1.013-8.572 1.672-12.858 2.28-4.89.71-9.731.66-14.572.457-6.454-.254-12.857-1.217-19.06-3.092-5.898-1.774-11.546-4.105-16.89-7.248-.757-.456-1.463-.861-2.219-1.318-.151-.05-.202-.253-.605-.71zM54.163 66.142c.05.203.1.456.202.66 0 1.925.605 2.483 2.52 2.128 1.463-.254 2.875-.659 4.337-.963.655-.152 1.31-.203 2.017-.304.958 1.622-.151 2.838-.656 4.055-1.613 3.851-4.235 6.893-7.361 9.63-2.168 1.875-4.135 4.105-5.244 6.892-.151.406-.353.862-.252 1.217.454 1.824.151 3.852 1.361 5.524.303.355.152 1.065.202 1.622.05.862 0 1.724.1 2.585.253 1.774-.2 2.737-1.714 3.7-1.109.71-2.218 1.52-3.227 2.382-.605.558-.958 1.318-.504 2.18.05.1.101.253.101.354.857 2.99.656 3.498-1.966 5.17.504 2.94-1.311 5.018-2.874 7.096-.757 1.014-2.017 1.622-3.429 1.52-.605-.05-1.26-.05-1.866-.101-3.378-.152-3.428-.203-4.437-3.447-.353-1.165-.907-2.331-1.664-3.294-1.563-2.129-2.168-4.561-2.773-6.994a14.531 14.531 0 0 0-1.613-3.75c-1.26-2.18-1.412-4.461-.757-6.843 1.11-3.852-.05-7.299-1.714-10.644-.252-.557-.555-1.064-.857-1.672a8.934 8.934 0 0 0 1.16-.811c1.16-.963 1.714-2.636 1.31-3.802-.605-1.774-2.067-2.28-3.68-2.23-1.26 0-1.916-.354-1.664-1.672 0-.05.1-.102-.05 0 .957.304 1.815.659 2.722.912 3.076.862 4.236 3.852 2.32 6.437-.858 1.166-.706 1.926-.101 3.092.706 1.52 1.059 3.294 1.512 4.967.101.405.05.912.252 1.267.505 1.115.404 2.128 0 3.243-1.008 2.636-.907 5.12.454 7.704 1.06 1.977 1.462 4.36 2.32 6.437.806 1.926 1.865 3.75 2.773 5.626.403.811.706 1.723.958 2.585.403 1.368 1.11 1.875 2.52 1.926.556 0 1.11.05 1.665.152 1.916.355 3.429-.304 4.487-1.926 1.06-1.673 2.32-3.193 2.168-5.423-.05-.456.454-1.217.908-1.47 1.513-.81 1.462-2.027 1.11-3.345-.656-2.636-.101-3.953 2.268-5.525.404-.253.857-.506 1.311-.71 1.311-.607 1.463-1.672 1.563-3.04.252-2.89-1.059-5.423-1.512-8.16-.353-2.18.1-4.004 1.361-5.575 1.714-2.13 3.48-4.258 5.496-5.981 3.126-2.686 4.992-6.133 6.605-9.782.101-.203.05-.456.101-.963-1.916.405-3.68.76-5.445 1.115-2.118.405-3.127-.355-3.732-2.382-.252-.811-.958-1.52-1.664-2.129-.756-.71-1.764-1.115-2.52-1.825-.505-.456-.606-1.267-1.009-1.824-.706-.963-1.462-1.774-.555-3.092.252-.355-.1-1.166-.252-1.723-.151-.608-.454-1.217-.504-1.926 1.008.76 1.613 1.672 1.513 2.99-.05.66.353 1.369.655 2.028.202.456.605.81.706 1.267.605 2.483 2.824 3.446 4.538 4.865zM153.292 99.29c.504-2.383.907-4.309 1.361-6.285.151 0 .303 0 .454.05.202 1.115.605 2.23.605 3.346-.1 2.483 1.11 4.612 1.714 6.893a9.53 9.53 0 0 1 0 4.764c-.605 2.331-1.613 4.51-2.571 6.74-.504 1.217-1.21 2.434-1.916 3.549-.303.456-.908.76-1.462.963-1.664.608-1.614.557-2.017-1.268-.101-.456-1.009-.76-1.815-1.368-.454-1.622-1.311-2.027-3.177-.912-1.21.71-2.269 1.672-3.48 2.433-1.663 1.013-3.377 1.976-5.142 2.787-.555.254-1.311-.05-2.27-.152 1.564-2.788.556-5.271.455-7.755-.101-1.773-.101-3.7.554-5.321.454-1.166 1.967-1.926 3.076-2.737.756-.558 1.664-.811 2.42-1.267.353-.203.807-.507.908-.811.605-1.977 2.32-3.143 3.277-4.815.656-1.166 1.362-1.369 2.32-.406.907-1.267 1.815-2.483 2.722-3.7.958.304 1.715.609 2.522.862-.152 1.014-.454 1.977-.303 2.889.05.456.958.862 1.765 1.52zM41.305 35.681c.706-2.078 1.513-4.105 2.874-5.93 1.06-1.368 2.219-2.23 4.085-1.926.453.102 1.008-.202 1.512-.354.605-.254 1.21-.66 1.815-.862 1.463-.405 2.068.05 1.816 1.52-.152.811.15 1.116.706 1.47.403.254.857.456 1.26.811 1.21 1.014 1.059 2.534-.403 3.092-1.664.659-3.278 1.42-5.143.507-.555-.254-1.412-.254-1.967-.05-1.512.557-3.025 1.114-4.336 2.026-1.059.811-1.613.507-2.219-.304zM61.272 97.465l1.06 2.433c.403.912.1 1.57-.253 2.534-.756 1.825-.907 3.852-1.361 5.727-.303 1.318-.757 2.636-1.11 3.903-.252 1.064-1.058 1.672-2.016 1.52-.757-.101-1.664-.659-2.017-1.267-.706-1.368-1.26-2.889-.555-4.561.353-.913.303-2.028.202-3.041-.202-1.825.151-2.332 1.865-3.041.858-.355 1.614-1.065 2.27-1.774.604-.66.957-1.571 1.411-2.332.151-.05.303-.05.504-.101zM128.636 89.051c-2.32.355-3.177-1.52-4.286-2.889-.857-1.064-1.412-2.432-2.219-3.598-1.21-1.774-2.52-3.447-3.781-5.17-.353-.456-.656-.963-1.06-1.52 1.513-.609 2.37.101 3.177.861.706.608 1.26 1.369 1.967 1.926.504.456 1.11.71 1.664 1.065l-.05-.051c.957 1.115 2.319 1.926 2.57 3.598.051.305.858.66 1.362.76.958.254 1.11.71.908 1.724-.252 1.115-.202 2.23-.252 3.294zM138.317 74.657c.403.456.705.862 1.058 1.166.656.557.555 1.166.202 1.825-.252.456-.655 1.165-.454 1.419 1.16 1.672 0 3.04-.453 4.46-.253.81-.656 1.622-.858 2.433-.252.963-.756.963-1.512.659-.555-.254-1.16-.355-1.715-.507-1.21-.304-2.42-.608-2.42-2.281 0-.406-.403-.76-.605-1.115-.756-1.42-.353-2.027 1.059-2.737 1.059-.507 1.916-1.47 2.773-2.28 1.059-.964 1.967-1.977 2.925-3.042zM157.981 92.194c-.655-.66-1.26-1.318-2.017-2.028-.353.406-.706.76-1.11 1.217-.755-.304-1.461-.66-2.167-.963.454-1.825.302-2.28-1.21-3.244-.404-.253-.807-.557-1.26-.76-1.261-.558-.656-1.977-1.413-2.838-.302-.355.857-1.014 1.311-.507.454.507.706 1.216 1.16 1.976.403-.304.908-.659 1.361-.963 4.034 1.065 4.79 4.46 5.648 7.806l-.303.304zM.565 80.638c.605 1.672 1.361 3.446 1.865 5.271.303 1.064.253 2.18.253 3.294.05 2.028.05 4.106.05 6.133 0 .659-.252 1.267-.605 1.926C.767 91.687.06 86.061.565 80.638zM26.129 31.576l-2.27 1.52c-.302.051-.604.102-1.058.153.151-.406.302-.71.504-1.369-.756.507-1.26.862-1.916 1.369.1-1.774 1.21-2.737 2.218-3.751.555-.558 1.009-1.318 1.564-1.926.655-.811 1.31-1.673 2.218-2.331-.504 2.128-.05 4.409-1.26 6.335zM44.381 47.693c.303-.05.757-.304.908-.152 1.16.811 2.37 1.115 3.731.558-.303.71-.605 1.318-.857 1.926.655.253 1.26.507 1.966.76-.252.203-.554.507-.807.71.656 1.723 1.16 3.396 1.967 4.967.353.659 1.21 1.064 1.866 1.622l-.757.76h.05c-1.562-.659-2.067-1.977-2.621-3.497-.757-2.078-2.017-4.004-3.227-5.93-.252-.406-1.06-.456-1.614-.71-.201-.355-.403-.71-.605-1.014zM128.585 89.102c.757.152 1.563.203 2.32.507.655.253 1.109.405 1.865.203.706-.203 1.916 0 2.37.506 1.26 1.521 2.874 1.166 4.538 1.217-.202 1.115-1.008.963-1.664.862-2.269-.305-4.538-.76-6.807-.963-1.31-.102-2.37-.457-3.277-1.47.252-.355.454-.609.655-.862zM141.544 85.858a66.931 66.931 0 0 0-.555 2.433c-.151-.05-.303-.05-.454-.101-.807-2.281-.504-4.511.504-6.64.101-.253.706-.405 1.11-.456.756-.05 1.563 0 2.42 0-.252 1.014-1.009 1.014-1.866.912-.958-.101-1.563.152-1.16 1.42.656-.153 1.21-.305 1.765-.457l.252.254c-.353.507-.705.963-1.058 1.419.302 1.115.605 2.18.958 3.396-1.614 0-1.362-1.267-1.916-2.18zM99.845 69.842c.655 1.065 1.26 1.926 1.714 2.839.353.658-.403 1.773-1.21 1.926-.958.202-1.412-.305-1.462-1.166-.05-1.166-.303-2.382.958-3.599zM143.51 68.778a36.345 36.345 0 0 1-1.714-.963c-.202.304-.404.557-.656.912-.706-2.18-1.512-4.207-.807-6.437 1.463.406 2.068 1.014 1.614 2.281-.454 1.369-.202 2.18 1.008 2.89.202.202.252.658.555 1.317z"/><path d="M44.381 47.693c.202.355.404.66.605 1.014a234.33 234.33 0 0 1 1.26 4.105c-.503-.1-.756-.152-1.108-.202-.05.71-.152 1.419-.202 2.128h-.151c-.05-.405-.152-.81-.101-1.216.151-1.52.05-2.94-.505-4.359-.15-.405.152-1.013.202-1.47zM144.367 69.538c.151 2.433 0 2.585-1.865 2.636-.152-.66-.353-1.369-.505-2.18.807-.101 1.816 1.217 2.37-.456zM144.821 50.329c-.202-.76-.353-1.52-.555-2.23h2.42c.454 1.368-1.26 1.318-1.31 2.331-.202-.05-.404-.101-.555-.101zM147.544 41.865v-2.839a295.778 295.778 0 0 1 2.067 2.839h-2.067zM80.382.405c-4.84.76-5.092.862-5.345 2.383h-3.126C72.92.963 77.256-.202 80.382.405zM142.149 73.897c1.109-.558 1.966-1.014 2.924-1.52.605 1.317.756 2.534-.454 3.851-.756-.76-1.512-1.419-2.47-2.331zM152.283 121.286c-.504.76-1.008 1.571-1.714 2.585-.403-1.977-.151-2.382 1.26-2.94.152.153.303.254.454.355z"/></g><path d="M149.738 193.603c1.152 2.82.601 3.828-2.303 4.584-.6.15-1.202.15-1.802.352-.351.1-.902.403-.952.655-.2 1.511-1.151 1.713-2.403 1.612-.2 0-.45.1-1.002.252.601.453 1.002.705 1.452 1.057-1.251 1.21-2.453 2.418-3.755 3.728.4.352.851.755 1.552 1.31-.951.805-1.752 1.46-2.553 2.165-1.252 1.058-1.202 2.116.15 3.022.5.353 1.101.554 1.752.857-.951 1.108-2.403 1.057-3.455.957-1.151-.101-2.303-1.008-3.655-1.663-.4-.906-1.101-2.065-1.402-3.324-.2-.907 0-2.015.3-2.972.451-1.36 1.102-2.67 1.653-3.928-1.352-1.713-1.502-4.433-.4-6.347.95-1.662 1.602-3.375 1.552-5.39-.05-1.51.55-2.971.7-4.533.301-2.87.601-5.742.601-8.613 0-.755-.9-1.662-1.602-2.266-.65-.605-1.602-.907-2.403-1.31-1.252-.655-2.304-1.46-3.005-2.871-1.201-2.468-2.653-4.835-4.005-7.253-.25-.453-.701-.856-1.052-1.26-1.201-1.41-1.252-2.216-.2-3.777.2-.302.45-.604.65-.907-1.05-1.259-1-2.77.151-4.281.5-.604 1.052-1.209 1.502-1.813.501-.655 1.402-1.36 1.402-2.015-.05-1.561-.4-3.173-.851-4.684-.15-.454-.901-.957-1.452-1.008-.35-.05-.801.705-1.202 1.108-.15.101-.25.252-.5.554-1.853-1.108-3.706-2.165-5.558-3.324-.401-.252-.601-.705-.852-1.158-.85-1.562-1.652-2.922-3.755-3.274-1.602-.252-3.255-.907-4.556-2.166-.601-.605-1.753-.907-2.654-.806-1.352.1-2.454.05-3.655-.705-1.653-1.008-3.505-1.662-5.258-2.519-1.202-.604-2.053-1.31-1.853-2.972.25-2.014-1.502-3.122-2.453-4.583-1.302-2.116-2.754-4.13-4.106-6.246-.2-.302-.45-.655-.901-1.31-.751 2.368 1.201 3.375 1.602 4.937.4 1.612 1.302 3.072 2.053 4.734-1.552-.201-2.103-1.208-2.604-2.317-.2-.453-.2-1.057-.55-1.31-.952-.654-1.252-1.36-1.453-2.618-.3-1.864-1.452-3.577-2.253-5.39a1.21 1.21 0 0 0-.5-.504c-2.855-1.662-3.055-4.583-3.105-7.353 0-1.864.801-3.728 1.152-5.591.2-1.008.3-2.065.4-3.073 0-.151 0-.453-.1-.504-2.253-1.51-.25-4.23-2.003-5.993-2.103.453-1.001-2.62-2.603-2.972-2.905.1-4.557 2.367-6.36 4.13-.95.957-1.301 2.62-2.904 3.324-.7-.201-1.101-.654-.75-1.561.15-.353.2-.756.4-1.007 1.252-1.763 2.453-3.577 3.805-5.239 1.452-1.813 3.055-3.475 4.607-5.188 2.203-2.367 4.907-3.979 7.861-5.339 2.153-1.007 4.056-2.518 6.159-3.526a23.05 23.05 0 0 1 5.458-1.763c1.151-.201 2.053-.453 2.754-1.662-1.553-1.41-2.504 1.511-4.206.453.75-.654 1.351-1.31 2.103-1.813 1.452-.957 2.904-1.662 4.756-1.561 1.903.15 3.656-.504 5.308-1.511.55-.353 1.202-.454 1.953-.756-.25.705-.4 1.31-.651 2.015.7.151 1.201.252 1.702.353.1 1.208-2.303 1.863-4.606 1.108.951-.202 1.652-.353 2.553-.554-.3-.353-.65-.907-.7-.907-2.454 1.209-5.208.755-7.712 1.46-.1.051-.2.152-.25.252.851 1.713.851 1.713 2.453 1.21.451-.152.902-.454 1.402-.454.852 0 1.352.504 1.352 1.36 0 .856-.3 1.41-1.302 1.36-.6-.05-1.251.1-1.902.201-.601.101-1.252.454-1.803.303-3.204-.806-5.958.705-8.612 1.964-3.405 1.612-6.71 3.576-9.914 5.54-3.005 1.864-5.408 4.433-7.511 7.254-.45.604-1.001 1.057-1.452 1.662-.25.352-.45.755-.651 1.108.1.1.25.201.35.302.401-.302.902-.503 1.202-.906 1.002-1.159 2.153-1.864 3.655-2.317 1.953-.554 2.454-.403 3.005 1.561.1.302.35.554.7 1.159.151-.655.301-.957.351-1.26.05-.352.1-.654.3-1.007.201.755.351 1.561.551 2.317.551 2.015 1.352 3.828 3.305 5.037.901.554.601 1.763-.3 2.518-.35.302-.801.605-.902 1.008-.55 2.317-1.001 4.684-1.502 7-.5 2.318.651 4.232 1.502 6.196.2.504 1.152.705 1.553 1.21.6.704 1.001 1.56 1.502 2.316 2.053-.302 2.153-.05 3.204 1.713 1.503 2.518 3.255 4.936 4.957 7.253.902 1.209 1.553 2.418 1.653 4.03 0 .604.55 1.46 1.051 1.712 2.103 1.108 4.256 2.166 6.46 3.072.65.252 1.452.151 2.153.101 1.402-.05 2.553.403 3.705 1.26 1.152.856 2.554 1.661 3.905 1.813 2.204.251 2.955 1.964 4.056 3.374.4.504.751 1.008 1.102 1.511.2-1.36.4-2.568.6-3.727.351-1.964-.15-2.67-2.102-2.72-.751-.05-1.452 0-2.203 0-1.603-.05-2.204-.806-1.803-2.468.3-1.36.851-2.67 1.252-4.03.05-.2.1-.453.15-.755-1.352-.201-2.203.353-2.504 1.46-.7 2.52-2.653 2.52-4.706 2.57-1.853.05-2.904-1.008-3.605-2.62-1.102-2.367-1.503-4.785-.501-7.353.3-.806.1-1.864.45-2.67 1.102-2.216 3.806-3.778 6.61-3.324.951.15 1.802.352 2.353-.756.15-.302.751-.453 1.152-.453 1.953.1 3.905.15 5.858.554 1.402.252 1.853 1.712 2.253 2.921.2.605.451 1.159.701 1.763.2-.05.351-.1.551-.151-.3-1.158-.5-2.317-.851-3.425-.6-2.116-.1-3.627 1.753-4.886 1.101-.755 2.203-1.561 3.304-2.317.952-.655 1.402-1.46 1.002-2.72-.2-.604-.2-1.36-.2-2.015 0-.352.15-.957.35-1.007 2.253-.655 3.154-3.173 5.408-3.878.4-.151.8-.655 1.001-1.108.6-1.36 1.502-2.267 3.054-2.72 1.052-.303 2.053-.857 2.905-1.461.3-.202.4-.957.25-1.41-.15-.605-.601-1.159-1.002-1.914-.85.302-1.752.654-2.653.957-.751-1.763-.651-1.663.65-2.67 1.753-1.41 3.756-1.46 5.759-1.158 2.103.302 3.855-.504 5.658-1.21.3-.1.65-.503.65-.755s-.35-.705-.6-.755c-.951-.151-1.853-.151-3.155-.252.852-.353 1.402-.655 1.953-.806 1.603-.403 2.954.604 2.954 2.266 0 .756-.25 1.612-.05 2.267.15.504.802 1.108 1.302 1.26 1.903.453 1.953 2.266 2.704 3.525.05.05-.2.252-.25.302a750.092 750.092 0 0 1-6.81-1.863c.6-1.31 1.302-2.72 1.953-4.13-.3-.101-.45-.202-.5-.152-2.454 1.663-5.208.957-7.862 1.008-1.552 0-1.552 0-2.754 1.259 2.504-.151 2.504-.151 3.555.554-.4.353-.751.705-1.202 1.108.601.554 1.152 1.159 1.803 1.713 1.752 1.611 1.853 1.611 3.555-.05.15.15.25.352.4.503.15.201.301.403.551.756-1.101.503-2.153.957-3.204 1.41-1.002.453-1.953.957-3.005 1.46-1.151-1.158-.05-1.712.601-2.568-.45.15-.951.302-1.352.453l-3.154 1.36c-1.352.604-1.803 1.763-1.552 3.274-3.405.353-4.907 2.72-6.36 5.792-.2-.856-.35-1.46-.5-2.014h-.2c.05.755 0 1.51.15 2.266.5 1.965.25 2.77-1.402 3.879l-3.455 2.417c-1.002.756-1.502 2.066-1.202 3.224.35 1.31.651 2.62 1.052 3.929.35 1.108-.1 1.863-.801 2.72-1.152-.957-1.853-1.965-2.154-3.274-.5-2.116-1.151-2.77-3.304-3.073-.851-.15-1.703-.352-2.554-.352-1.402-.05-1.552.05-2.153 1.41-1.552 0-3.054-.05-4.556 0-2.554.151-4.156 1.964-4.156 4.483 0 .352-.15.705-.3 1.007-1.152 2.267-.451 6.196 1.451 7.858 1.502 1.31 4.857.655 5.558-1.058.901-2.267 1.953-2.72 4.707-2.065-.651 2.216-1.252 4.382-2.003 6.9 1.202 0 2.153-.05 3.104 0 2.604.101 3.255.806 3.055 3.426-.05.503-.15.957-.2 1.46-.351 2.317 1.502 4.18 3.755 3.576 1.652-.453 3.004-.403 4.156 1.058 1.001-1.158 1.802-2.418 2.954-3.223 1.152-.806 2.654-1.058 4.106-1.612-.1 1.158-.25 2.216-.35 3.274-.1-1.814 1.552-2.015 2.653-2.922 1.352 1.31 3.004 2.065 4.907 2.015.5 0 1.152.05 1.552-.201 1.002-.605 1.753-.252 2.504.352 1.853 1.46 3.605 3.022 5.508 4.382a5.153 5.153 0 0 0 2.654.957c2.053.101 3.755.806 5.057 2.317 1.001 1.159 1.702 2.519 1.352 4.282 1.201.654 2.303 1.611 3.905 1.561.501 0 1.102.302 1.452.655 1.152 1.209 2.604 1.26 4.056 1.26 1.202 0 2.253.301 3.155 1.158.5.453 1.101.755 1.702 1.057 1.602.756 2.153 1.814 1.352 3.375-.951 1.813-2.153 3.526-3.355 5.238-.8 1.109-1.352 2.267-1.452 3.677-.15 2.821-1.502 5.138-3.254 7.253-.3.403-.852.605-1.302.857-1.653.906-3.355 1.712-4.907 2.72-.952.604-1.252 1.662-1.653 2.72-.6 1.611-1.752 3.072-2.804 4.482-.901 1.159-2.053 2.066-3.054 3.174-1.252 1.51-2.854 1.46-4.607 1.007z"/><path d="M99.445 71.959l-.837-2.684 8.37-2.349 2.107 1.342 1.91-2.18 3.348-.752 3.85 2.932 2.51 1.007s-.94 1.467-2.51 2.684c-1.658 1.285-3.979 2.352-5.19 3.523-2.356 2.28-2.008 3.187-2.008 3.187l2.932 2.687 8.615 2.632s.189 1.55 1.049 2.705c.86 1.155 1.835.412 1.863 1.37.005.196 1.824-1.37 1.824-1.37v-3.07l2.407-2.267-1.313-3.217.584-3.876s2.308-.261 3.501 0c1.193.262 3.502 1.536 3.502 1.536s.58 2.523 2.043 2.87c1.464.348 3.502-1.554 3.502-1.554l6.639 7.75 2.334.95s-.898 1.565-1.605 1.829c-.221.083-1.752.857-3.647 1.023-1.58.14-3.429-.361-4.815 0-2.26.59-2.846 1.975-2.846 1.975l2.846.365 1.532 2.928-4.815 2.702-2.408 2.852-6.347 4.68.584 3.875-6.414 6.215 1.049 5.623-1.049.963-2.227-4.43s-3.625-.884-5.765-.91c-1.323-.016-1.351.732-1.79.91-1.152.465-4.892.447-4.892.447l-3.407 1.926-.612 3.064-.917 2.407.393 4.027 2.053 2.583 2.752.612 2.445-.919 2.184-2.757h2.228l-1.616 6.583 4.28.307 1.834 1.47-.61 5.898-4.072-4.08s-4.907-2.456-7.442-3.288c-2.535-.832-3.512-.307-3.512-.307l-7.74-4.085-.68-2.313-7.479-11.575h-1.728l-4.52-5.704s-.25-3.231 0-5.033c.25-1.8 1.841-8.22 1.841-8.22l-6.36-9.394-7.752 5.871s1.625-6.715 10.095-12.917c8.471-6.202 19.92-9.059 19.92-9.059zM214.02 155.755c.498-2.579.746-5.197 1.176-7.77.855-5.425.452-10.85-.151-16.224-.352-3.315-1.157-6.58-1.76-9.895-.202-1.005-.353-2.06-.755-2.963-.553-1.156-.805-2.11.603-2.914-.603-.502-1.056-.904-1.458-1.356-.553-.653-1.258-1.306-1.56-2.11-1.71-4.67-3.923-9.09-6.538-13.31-1.006-1.607-2.113-3.164-3.119-4.771-.955-1.557-3.018-2.36-3.32-4.42 0-.1-.15-.15-.251-.251-1.257-1.557-2.515-3.164-3.772-4.721-.101-.05-.302-.05-.554-.1.302.903.755 1.757.755 2.61 0 2.462 1.207 4.672 3.37 5.827.352.201.704.703.805 1.105.251 1.005.452 2.06.704 3.416-.654 1.155-1.358 2.913-3.722 2.812 3.018 4.22 3.018 4.22 3.068 5.777-1.358.1-2.465-1.558-3.873-.653.251 1.054.704 1.958.704 2.913 0 2.11.905 3.616 2.364 4.972.654.653 1.258.804 1.962.452.754-.351 1.559-.803 1.308-1.758-.302-1.205.15-2.059.855-2.863.301-.351.905-.653 1.307-.602.352.05.654.653.956 1.054.252.302.352.704.604 1.005a197.142 197.142 0 0 0 2.917 3.918c-.654.452-.956.703-1.308.954.352.301.755.552 1.308 1.105.1-.753.201-1.306.402-2.36.453.753.604 1.205.906 1.556.452.653.2 2.01 1.61 1.809.05 0 .15.05.15.1.755 1.959 2.565 3.466 2.565 5.726.046.137-.075.274-.287.639l-.27-.119c-.565-.638-1.055-1.142-1.505-1.726-.704-.954-1.056-.502-1.358.302-2.012-1.96-3.621-4.069-3.52-7.032-1.007-.301-1.962-.603-3.12-.954-.452-.1-1.005-.1-1.357.1a3.08 3.08 0 0 1-.529.298c-.43.041-.869.099-1.277.16-.494-.088-.98-.34-1.464-.709-.955 1.657-2.263 3.164-2.012 5.374.015.074.017.151.008.232l-.527 1.102a8.883 8.883 0 0 1-.286.374c-1.81 2.06-2.665 4.62-2.766 7.233-.082 1.756.302 3.512.61 5.35.08.814.184 1.816.313 3.04.006.055.015.117.026.186a88.09 88.09 0 0 0-.295-.54c.754 4.119 2.615 7.534 5.885 10.246a374.936 374.936 0 0 1 5.373-1.652c.42-.051.813-.057 1.162.02.123.315.236.655.456.728 1.66.603 1.208 1.909 1.208 3.064 0 1.658.05 3.265.452 4.922.453 1.96.403 4.22-.1 6.178-.654 2.612-1.71 5.123-1.459 7.886.1.904 0 1.858-.252 2.762-.352 1.407-.1 2.411 1.409 2.863.251.1.503.302 1.056.603 1.308-3.415 2.565-6.68 3.823-9.895.05.151.251.452.603 1.105.453-1.958.855-3.566 1.258-5.223.15-.703.654-1.457.503-2.06a8.365 8.365 0 0 1-.176-.942l.158-1.985zm-5.686 2.638c-.008.124-.017.25-.028.374l.058-.176-.03-.198zm-2.04 13.987c.11.228.29.438.452.567.062.041.185.014.321-.05l-.774-.517zm.714-50.105a47.4 47.4 0 0 1-.115-.137l.038.104.077.033z"/><path d="M123.1 70.098c-.55-.1-1.051-.201-1.752-.352-1.703 2.72-5.007 3.677-7.41 5.742-1.102.957-1.753 1.964-2.154 3.223.701.756 1.402 1.512 1.803 1.965 1.953.604 3.605 1.108 5.307 1.612.651.201 1.302.352 1.953.453 2.253.252 2.253.252 2.754 2.267.4 1.561.4 1.561 1.552 2.619 1.803-.857 2.053-1.21 1.302-2.82-.45-1.008-.05-1.512.601-2.016.3-.251.651-.352.951-.554 1.202-.906 1.252-1.31.451-2.619-.3-.504-.701-1.007-.65-1.511.15-1.007.45-2.065.35-3.072-.1-1.058.15-1.562 1.201-1.461 1.753.15 3.555-.252 5.108 1.108.5.453 1.352.453 2.103.705.2 1.058-.2 2.367 1.352 2.871 1.852.605 2.403-.907 3.605-2.115a676.216 676.216 0 0 0 3.354 4.785c.351.453.752.957 1.252 1.259.851.604 1.803 1.058 3.005 1.763-.902.302-1.553.504-2.154.705-1.852-2.317-3.605-4.483-5.307-6.649-.851.403-1.652.957-2.504 1.108-1.201.252-2.453-.15-3.004-1.259-1.402-2.972-3.855-3.425-7.01-3.223.5 1.662-.801 3.223.4 4.986.852 1.209.401 2.519-1.101 3.425-.901.554-1.102 1.159-.901 2.116.2.957.4 1.964-.551 2.72-1.552 1.259-3.655.503-4.206-1.562-.25-.806-.4-1.662-.5-2.166-2.004-.654-3.706-1.259-5.408-1.863-.25-.101-.501-.202-.701-.202-1.853.302-3.155-.554-4.407-1.914-.8-.856-.851-1.51-.6-2.468.5-1.813 2.002-2.77 3.404-3.727 1.202-.856 2.554-1.46 3.706-2.317.65-.504 1.151-1.209 1.752-1.813-.4-.756-.5-1.41-1.602-1.31-.551.05-1.202-.705-1.703-1.108-.35-.302-.65-.705-1.151-1.26-.551 1.512.7 3.627-1.903 3.627.35-.604.901-1.158.851-1.662 0-.504-.6-1.007-.901-1.561-.801-.101-1.853-.202-3.255-.353 1.252-.756 2.103-1.31 3.205-2.015-.701-.15-1.252-.252-1.803-.352 2.454-1.41 4.957-1.914 7.561.1-1.001.504-1.953 1.008-2.904 1.461.6.806 1.202 1.511 1.752 2.216 1.703-.554 1.703-.554 2.354 1.008.6-.454 1.201-.857 1.752-1.31.15-.1.2-.302.45-.755-.75-.152-1.351-.202-1.902-.403-.45-.152-1.101-.454-1.101-.706-.05-.453.35-.957.6-1.41.1-.201.401-.352.601-.352 1.853-.303 3.656-.555 5.508-.857 2.053-.302 3.956.302 5.808 1.058 1.252.504 2.654.705 3.956 1.158.851.303 1.853.403 2.053 1.713.05.453 1.102.806 1.753 1.108 1.151.504 2.303.957 3.505 1.46-1.152 1.864-1.503 1.965-3.205 1.059-.5-.303-1.052-.504-1.702-.655.35 1.662 3.354 1.31 2.503 3.878-.6-.1-1.152-.252-1.903-.403.25.403.501.756.751 1.108-2.103-.403-4.256-.453-5.958-1.863-1.102-.907-2.203-1.26-3.555-.857-.55.152-1.202-.05-1.853-.1-.05-.202-.05-.353-.1-.554.5-.202 1.002-.605 1.502-.605 1.653.151 2.604-.655 3.405-2.266-2.303-1.511-4.606-2.821-7.61-1.663v2.317c-1.102.403-1.954.907-2.705 1.36zM172.27 72.617c-1.051 0-2.102.1-3.154 0-1.051-.1-2.103-.655-2.904.604-.15.252-.901.202-1.402.252-.801.05-1.552 0-2.404 0-.25 1.914.1 3.828-1.351 5.49-.401-.201-.802-.453-1.202-.654-.801-.403-1.703-.655-2.404-1.159-1.352-1.007-2.703-2.065-3.905-3.224-.851-.805-1.552-1.863-2.354-2.77-1.452-1.561-1.402-2.216.451-3.677-.4-.201-.7-.453-1.051-.504-.2-.05-.501.303-.651.252-.4-.15-.801-.403-1.152-.604.35-.252.651-.504 1.052-.806 0 .05 0-.1-.05-.1-1.603 0-2.454-1.16-3.506-2.167-2.052-1.914-4.806-2.266-7.56-2.266-1.653 0-3.305-.05-4.857-1.108 4.056-.151 7.961.05 11.817.755 3.104.605 6.309.957 9.363 1.814 4.406 1.259 8.712 2.82 12.968 4.482 1.252.504 2.554 1.36 2.955 3.022.2.706.951 1.26 1.452 1.914a.816.816 0 0 0-.15.454zM111.934 221.709c1.503.201 3.005.353 4.457.655 4.206.957 8.412 1.612 12.718 1.712 1.051 0 1.853-.302 2.854-.906.951-.554 2.504-.202 3.755-.252.651 0 1.252-.05 1.903-.403-.35-.151-.65-.252-1.152-.453 1.603-.403 3.005-.706 4.457-1.058.05.1.1.201.15.352-.901.605-1.803 1.21-2.904 1.914 2.654.957 3.605.554 3.855-1.763.1-.856.401-1.208 1.102-1.46a69.056 69.056 0 0 1 3.004-.957c.05.15.1.302.2.453-.6.353-1.301.604-1.802 1.058-.651.655-1.402 1.46-1.702 2.317-.351 1.058-.902 1.561-1.903 1.662-4.006.403-8.062.806-12.067.201-2.204-.302-4.407-.352-6.56-.705-3.455-.503-6.91-1.209-10.415-1.813-.05-.1 0-.302.05-.554zM196.555 99.514c-1.101-.202-1.953-.353-2.353-.403-1.452-1.511-.25-3.677-2.203-4.987.05.756.1 1.26.15 1.914-.701.303-1.402.605-1.953-.15-.801-1.058-.55-2.57.45-3.627-.15-.806-1.351-1.562-.1-2.77 1.052 1.662 2.054 3.273 3.105 4.835 1.102 1.51 2.754 2.77 2.904 5.188zM118.594 127.015c.35-1.46 1.102-1.914 1.953-1.964 1.452-.1 2.854-.252 4.256.554 1.702 1.007 3.605 1.662 5.408 2.518.25.101.45.353.7.554-1.902 1.109-2.753.957-4.205-.302-.701-.604-1.653-1.007-2.554-1.41a10.701 10.701 0 0 0-2.253-.705c-.551-.101-1.202-.101-1.753 0-.35.1-.75.403-1.552.755zM138.422 131.196c-2.503.201-4.757 1.007-6.96.1 0-.15 0-.251-.05-.402a22.2 22.2 0 0 0 1.552-.353 10.37 10.37 0 0 0-.25-1.209c3.255-.503 4.256-.201 5.708 1.864z"/><path d="M123.05 70.098c.801.655 1.603 1.36 2.554 2.166-.35.101-.701.202-1.052.252-.8.151-1.602.353-2.403.403-.65.05-1.302 0-2.053 0 .1-2.216 1.703-2.317 2.954-2.82zM100.318 67.076c3.255-1.612 6.309-2.518 9.513-2.87-2.904 1.36-5.808 2.77-9.513 2.87zM105.275 70.4c1.302-.1 2.604-.15 3.906-.352.8-.1 1.502-.302 1.852-1.36.35-1.158 1.452-.957 2.404-.655-2.254 2.62-4.857 3.778-8.162 2.368zM121.198 61.586c2.754-1.46 5.758-1.26 8.762-1.158-.35.251-.65.654-1.001.705-2.604.15-5.208.302-7.761.453-.05-.05 0 0 0 0z"/><path d="M121.148 61.536c.25.503.55 1.007.75 1.41-1.351-.151-3.104-.403-4.856-.604-.05-.152-.05-.353-.1-.504.55-.151 1.101-.353 1.652-.353.851 0 1.752.05 2.554.05.05.051 0 0 0 0z"/></g></g><g fill="#0F1D3E"><path d="M34.932 12.841c.11.207.23.372.302.569.154.352.298.747.442 1.142.17.446.293.925.766 1.133.038.01.055.103.082.155-.086.023-.183.089-.318.145.23.37.422.733.68 1.156.198-.31.386-.577.535-.853.491-1 1.02-1.989 1.484-3.04.373-.848.605-1.777.598-2.72-.013-.273-.053-.597-.152-.846-.1-.25-.285-.475-.471-.7-.29-.297-.68-.35-1.043-.35-.476-.03-.936.035-1.407.142a7.339 7.339 0 0 0-3.043 1.529c-.049.033-.135.056-.232.121.025-.262.067-.431.082-.652.027-.756-.286-1.282-.868-1.696-.414-.283-.79-.556-1.269-.9.502-.233.918-.444 1.371-.645 1.641-.757 3.234-1.481 4.875-2.238.232-.122.453-.2.386-.577-.838-.522-1.686-1.003-2.524-1.526-.462-.25-.925-.5-1.338-.782-.376-.273-.728-.316-1.171-.158-1.81.626-3.6 1.166-5.436 1.74a.718.718 0 0 0-.538.539c-.053.21-.105.422-.354.45-.25.027-.112.286-.23.436-.07.117-.14.234-.274.29-.73.177-1.36.603-1.833 1.203A12.224 12.224 0 0 0 22.93 7.74c-.23.436-.487.82-.575 1.337-.01.042-.118.15-.167.182-.318.145-.664.238-1.031.416-.089-.291-.15-.53-.211-.77a1.13 1.13 0 0 0 .345-.093c-.272-.203-.544-.405-.26-.738-.092-.113-.185-.226-.164-.31.04-1.291.59-2.365 1.46-3.27.48-.463 1.04-.772 1.663-.84.584-.08 1.179-.2 1.761.214-.057-.418-.253-.601-.487-.794C24.148 2.213 23.07 1.36 21.953.5a.912.912 0 0 0-.798-.199c-.297.06-.622.07-.902.224-.502.233-1 .288-1.526.292-.953-.058-1.826 1.339-1.577 2.119.1.249.15.53.212.77a.894.894 0 0 1-.009.357c-.014.22-.04.483-.103.737-.092.694-.001 1.3.436 1.813l.082.155s-.01.042.007.136c-.152-.038-.277-.024-.38-.095a.213.213 0 0 1-.159-.174c-.213-.277-.44-.334-.76-.19-.231.122-.535.046-.723.314a.452.452 0 0 1 .218.099l-.021.084c-.125.014-.25.028-.325.009-.283-.16-.564-.006-.813.022-.173.046-.28.154-.37.356-.193.445-.317.459-.644.153-.028-.052-.066-.061-.142-.08-.031.127-.035.305-.094.38-.06.075-.194.131-.291.197-.038-.01-.028-.052-.066-.062.07-.117.14-.234.181-.403-.038-.01-.065-.061-.065-.061-2.28.732-4.599 1.455-6.879 2.187-.049.033-.087.023-.135.056-.357.135-.426.253-.185.582.673 1.02 1.309 2.03 1.982 3.05.35.537.701 1.073 1.052 1.608.295.433.285.475.814.293 2.426-.83 4.862-1.703 7.288-2.533 1.146-.388 2.253-.784 3.399-1.171.53-.182.53-.182.563-.802.02-.084.042-.169.025-.263.318-.145.626-.247.983-.383.044.146.05.282.057.418.123.48.304.883.67 1.199a242.075 242.075 0 0 1 3.822 3.6c.72.672 1.085.987 2.292.84-.133.37-.217.708-.34 1.036a7.821 7.821 0 0 0-.3 3.469c.034.188.079.334.123.48.247 1.272 1.69 1.632 2.57 1.178.357-.135.751-.261.998-.603.01-.042.097-.066.097-.066.331.128.491-.191.723-.313.243-.164.486-.327.69-.5.36-.314.683-.638 1.071-.9.146-.098.068-.431.393-.44.114.028.263-.248.42-.389.155-.14.284-.333.45-.515l.178-.225c-.038-.01-.028-.052-.066-.061-.276-.024-.574.036-.877-.04-.294-.118-.64-.025-.916-.049-.325.009-.64-.025-.926-.006-.325.008-.64-.025-.927-.007a2.353 2.353 0 0 0-.383.084c.059.732.08 1.455.102 2.178-.338-.264-.27-.695-.3-1.062-.03-.366-.06-.732-.079-1.14l-.304-.076c-.4-.01-.812.022-1.202-.03-.277-.025-.422.073-.534.36-.164.497-.377 1.027-.541 1.524-.043.169-.095.38-.175.54-.036-.503-.035-.996.157-1.441.635-1.412 1.334-2.763 2.355-3.943.108-.108.16-.32.192-.446.105-.422.276-.783.588-1.064.166-.183.289-.512.39-.755.133-.371.33-.68.674-1.088l-.484 1.942c.205-.173.137-.549.44-.473.039.01.07-.117.119-.15.17-.36.472-.6.846-.641.411-.032.654-.196.72-.628-.421.075-.58-.1-.474-.522.18.09.32.17.49.302.038.01-.005.178-.026.263.125-.014.287-.019.412-.032.118-.15.225-.258.37-.356.195-.131.378-.22.61-.342.6-.299 1.182-.692 1.825-.846.211-.037.422-.074.597.194-.533.36-1.118.439-1.63.715-.55.266-1.063.542-1.624.85a.818.818 0 0 1-.186-.225c-.042.169-.046.347-.078.474-.243.164-.285.333-.365.492.038.01 0 0 0 0zm-16.115-4.78c-.065-.061-.141-.08-.169-.132-.175-.268-.36-.494-.685-.485l-.034-.188c.162-.004.238.015.363.001.221-.08.352.043.483.165.72.673 1.429 1.388 2.11 2.052.028.051.066.06.094.112-.07.118-.119.15-.178.225.045.146.09.292.144.395-.34.23-.37-.137-.376-.273-.019-.408-.215-.592-.487-.794-.232.121-.137.549-.49.506-.154-.353.116-.465.293-.69-.327-.306-.606-.644-.895-.94-.316.459-.316.459-.582.392.135-.056.243-.163.41-.346z"/><path d="M33.75 14.834c-.08.16-.14.234-.21.352-.246.342-.419.388-.767.167-.027-.052-.103-.07-.13-.122-.208-.142-.38-.095-.454.2-.106.423-.162.812-.23 1.244-.057.39-.048.84-.04 1.29 1.355.07 2.634.12 3.982.052a.572.572 0 0 1 .082-.653c.129-.192.095-.38-.036-.502-.323-.484-.674-1.02-1.045-1.472-.258-.423-.686-.485-1.152-.556zM29.964 17.882c.563.006 1.078.044 1.641.05.097-.873.183-1.703.29-2.619-.124.014-.325.01-.384.084-.58.708-1.17 1.458-1.553 2.349 0 0 .038.01.006.136zM34.97 12.85c-.373.042-.736.041-1.023.06-.35.271-.238.792-.704.721-.015.22-.047.347-.05.526.852.302 1.656.637 2.546.949-.215-.592-.441-1.142-.63-1.682-.082-.155-.105-.385-.139-.573zm-1.358.918c.491-.191.958-.12 1.112.232-.395.126-.736.041-1.112-.232zM35.254 15.433c.389.546.74 1.082 1.128 1.627-.166-1.118-.368-1.437-1.128-1.627z"/></g><g stroke="#979797" stroke-width="2" stroke-linecap="round"><path d="M34.5 38C46.926 38 57 27.926 57 15.5M34.5 33C44.165 33 52 25.165 52 15.5M34.5 28C41.404 28 47 22.404 47 15.5"/></g></g></svg>